# Blender 4.1.1
# www.blender.org
mtllib enemy.mtl
o 球
v 0.000000 0.831470 -0.555570
v 0.000000 0.555570 -0.831470
v 0.000000 0.195090 -0.980785
v 0.000000 0.000000 -1.000000
v 0.000000 -0.195090 -0.980785
v 0.000000 -0.555570 -0.831470
v 0.038060 0.980785 -0.191342
v 0.074658 0.923880 -0.375330
v 0.108386 0.831470 -0.544895
v 0.137950 0.707107 -0.693520
v 0.162212 0.555570 -0.815493
v 0.180240 0.382683 -0.906127
v 0.191342 0.195090 -0.961940
v 0.195090 0.000000 -0.980785
v 0.191342 -0.195090 -0.961940
v 0.180240 -0.382683 -0.906127
v 0.162212 -0.555570 -0.815493
v 0.137950 -0.707107 -0.693520
v 0.108386 -0.831470 -0.544895
v 0.074658 -0.923880 -0.375330
v 0.038060 -0.980785 -0.191342
v 0.074658 0.980785 -0.180240
v 0.146447 0.923880 -0.353553
v 0.212608 0.831470 -0.513280
v 0.270598 0.707107 -0.653281
v 0.318190 0.555570 -0.768178
v 0.353553 0.382683 -0.853553
v 0.375330 0.195090 -0.906127
v 0.382683 0.000000 -0.923879
v 0.375330 -0.195090 -0.906127
v 0.353553 -0.382683 -0.853553
v 0.318190 -0.555570 -0.768178
v 0.270598 -0.707107 -0.653281
v 0.212608 -0.831470 -0.513280
v 0.146447 -0.923880 -0.353553
v 0.074658 -0.980785 -0.180240
v 0.108386 0.980785 -0.162212
v 0.212608 0.923880 -0.318190
v 0.308658 0.831470 -0.461940
v 0.392847 0.707107 -0.587938
v 0.461940 0.555570 -0.691342
v 0.513280 0.382683 -0.768178
v 0.544895 0.195090 -0.815493
v 0.555570 0.000000 -0.831469
v 0.544895 -0.195090 -0.815493
v 0.513280 -0.382683 -0.768178
v 0.461940 -0.555570 -0.691342
v 0.392847 -0.707107 -0.587938
v 0.308658 -0.831470 -0.461940
v 0.212608 -0.923880 -0.318190
v 0.108386 -0.980785 -0.162212
v 0.137950 0.980785 -0.137950
v 0.270598 0.923880 -0.270598
v 0.392847 0.831470 -0.392847
v 0.500000 0.707107 -0.500000
v 0.587938 0.555570 -0.587938
v 0.653281 0.382683 -0.653281
v 0.693520 0.195090 -0.693520
v 0.707107 0.000000 -0.707107
v 0.693520 -0.195090 -0.693520
v 0.653281 -0.382683 -0.653281
v 0.587938 -0.555570 -0.587938
v 0.500000 -0.707107 -0.500000
v 0.392847 -0.831470 -0.392847
v 0.270598 -0.923880 -0.270598
v 0.137950 -0.980785 -0.137950
v 0.162212 0.980785 -0.108386
v 0.318190 0.923880 -0.212608
v 0.461940 0.831470 -0.308658
v 0.587938 0.707107 -0.392847
v 0.691342 0.555570 -0.461940
v 0.768178 0.382683 -0.513280
v 0.815493 0.195090 -0.544895
v 0.831470 0.000000 -0.555570
v 0.815493 -0.195090 -0.544895
v 0.768178 -0.382683 -0.513280
v 0.691342 -0.555570 -0.461940
v 0.587938 -0.707107 -0.392847
v 0.461940 -0.831470 -0.308658
v 0.318190 -0.923880 -0.212608
v 0.162212 -0.980785 -0.108386
v 0.000000 1.000000 0.000000
v 0.180240 0.980785 -0.074658
v 0.353553 0.923880 -0.146447
v 0.513280 0.831470 -0.212607
v 0.653281 0.707107 -0.270598
v 0.768178 0.555570 -0.318190
v 0.853553 0.382683 -0.353553
v 0.906127 0.195090 -0.375330
v 0.923879 0.000000 -0.382683
v 0.906127 -0.195090 -0.375330
v 0.853553 -0.382683 -0.353553
v 0.768178 -0.555570 -0.318190
v 0.653281 -0.707107 -0.270598
v 0.513280 -0.831470 -0.212607
v 0.353553 -0.923880 -0.146447
v 0.180240 -0.980785 -0.074658
v 0.191342 0.980785 -0.038060
v 0.375330 0.923880 -0.074658
v 0.544895 0.831470 -0.108386
v 0.693520 0.707107 -0.137950
v 0.815493 0.555570 -0.162212
v 0.906127 0.382683 -0.180240
v 0.961940 0.195090 -0.191342
v 0.980785 0.000000 -0.195090
v 0.961940 -0.195090 -0.191342
v 0.906127 -0.382683 -0.180240
v 0.815493 -0.555570 -0.162212
v 0.693520 -0.707107 -0.137950
v 0.544895 -0.831470 -0.108386
v 0.375330 -0.923880 -0.074658
v 0.191342 -0.980785 -0.038060
v 0.195090 0.980785 0.000000
v 0.382683 0.923880 0.000000
v 0.555570 0.831470 0.000000
v 0.707107 0.707107 -0.000000
v 0.831469 0.555570 0.000000
v 0.923879 0.382683 -0.000000
v 0.980785 0.195090 0.000000
v 1.000000 0.000000 0.000000
v 0.980785 -0.195090 0.000000
v 0.923879 -0.382683 -0.000000
v 0.831469 -0.555570 0.000000
v 0.707107 -0.707107 -0.000000
v 0.555570 -0.831470 0.000000
v 0.382683 -0.923880 0.000000
v 0.195090 -0.980785 0.000000
v 0.191342 0.980785 0.038060
v 0.375330 0.923880 0.074658
v 0.544895 0.831470 0.108386
v 0.693520 0.707107 0.137950
v 0.815493 0.555570 0.162212
v 0.906127 0.382683 0.180240
v 0.961940 0.195090 0.191342
v 0.980785 0.000000 0.195090
v 0.961940 -0.195090 0.191342
v 0.906127 -0.382683 0.180240
v 0.815493 -0.555570 0.162212
v 0.693520 -0.707107 0.137950
v 0.544895 -0.831470 0.108386
v 0.375330 -0.923880 0.074658
v 0.191342 -0.980785 0.038060
v 0.180240 0.980785 0.074658
v 0.353553 0.923880 0.146447
v 0.513280 0.831470 0.212608
v 0.653281 0.707107 0.270598
v 0.768178 0.555570 0.318190
v 0.853553 0.382683 0.353553
v 0.906127 0.195090 0.375330
v 0.923879 0.000000 0.382683
v 0.906127 -0.195090 0.375330
v 0.853553 -0.382683 0.353553
v 0.768178 -0.555570 0.318190
v 0.653281 -0.707107 0.270598
v 0.513280 -0.831470 0.212608
v 0.353553 -0.923880 0.146447
v 0.180240 -0.980785 0.074658
v 0.162212 0.980785 0.108386
v 0.318190 0.923880 0.212608
v 0.461940 0.831470 0.308658
v 0.587938 0.707107 0.392847
v 0.691341 0.555570 0.461940
v 0.768178 0.382683 0.513280
v 0.815493 0.195090 0.544895
v 0.831469 0.000000 0.555570
v 0.815493 -0.195090 0.544895
v 0.768178 -0.382683 0.513280
v 0.691341 -0.555570 0.461940
v 0.587938 -0.707107 0.392847
v 0.461940 -0.831470 0.308658
v 0.318190 -0.923880 0.212608
v 0.162212 -0.980785 0.108386
v 0.137950 0.980785 0.137950
v 0.270598 0.923880 0.270598
v 0.392847 0.831470 0.392847
v 0.500000 0.707107 0.500000
v 0.587938 0.555570 0.587938
v 0.653281 0.382683 0.653281
v 0.693520 0.195090 0.693520
v 0.707106 0.000000 0.707107
v 0.693520 -0.195090 0.693520
v 0.653281 -0.382683 0.653281
v 0.587938 -0.555570 0.587938
v 0.500000 -0.707107 0.500000
v 0.392847 -0.831470 0.392847
v 0.270598 -0.923880 0.270598
v 0.137950 -0.980785 0.137950
v 0.108386 0.980785 0.162212
v 0.212607 0.923880 0.318190
v 0.308658 0.831470 0.461940
v 0.392847 0.707107 0.587938
v 0.461940 0.555570 0.691342
v 0.513280 0.382683 0.768178
v 0.544895 0.195090 0.815493
v 0.555570 0.000000 0.831469
v 0.544895 -0.195090 0.815493
v 0.513280 -0.382683 0.768178
v 0.461940 -0.555570 0.691342
v 0.392847 -0.707107 0.587938
v 0.308658 -0.831470 0.461940
v 0.212607 -0.923880 0.318190
v 0.108386 -0.980785 0.162212
v 0.074658 0.980785 0.180240
v 0.146447 0.923880 0.353553
v 0.212607 0.831470 0.513280
v 0.270598 0.707107 0.653281
v 0.318189 0.555570 0.768178
v 0.353553 0.382683 0.853553
v 0.375330 0.195090 0.906127
v 0.382683 0.000000 0.923879
v 0.375330 -0.195090 0.906127
v 0.353553 -0.382683 0.853553
v 0.318189 -0.555570 0.768178
v 0.270598 -0.707107 0.653281
v 0.212607 -0.831470 0.513280
v 0.146447 -0.923880 0.353553
v 0.074658 -0.980785 0.180240
v 0.038060 0.980785 0.191342
v 0.074658 0.923880 0.375330
v 0.108386 0.831470 0.544895
v 0.137950 0.707107 0.693520
v 0.162212 0.555570 0.815493
v 0.180240 0.382683 0.906127
v 0.191342 0.195090 0.961939
v 0.195090 0.000000 0.980785
v 0.191342 -0.195090 0.961939
v 0.180240 -0.382683 0.906127
v 0.162212 -0.555570 0.815493
v 0.137950 -0.707107 0.693520
v 0.108386 -0.831470 0.544895
v 0.074658 -0.923880 0.375330
v 0.038060 -0.980785 0.191342
v -0.000000 0.980785 0.195090
v -0.000000 0.923880 0.382683
v -0.000000 0.831470 0.555570
v -0.000000 0.707107 0.707107
v -0.000000 0.555570 0.831469
v 0.000000 0.382683 0.923879
v -0.000000 0.195090 0.980785
v -0.000000 0.000000 0.999999
v -0.000000 -0.195090 0.980785
v 0.000000 -0.382683 0.923879
v -0.000000 -0.555570 0.831469
v -0.000000 -0.707107 0.707107
v -0.000000 -0.831470 0.555570
v -0.000000 -0.923880 0.382683
v -0.000000 -0.980785 0.195090
v -0.038060 0.980785 0.191342
v -0.074658 0.923880 0.375330
v -0.108386 0.831470 0.544895
v -0.137950 0.707107 0.693520
v -0.162212 0.555570 0.815493
v -0.180240 0.382683 0.906127
v -0.191342 0.195090 0.961939
v -0.195091 0.000000 0.980785
v -0.191342 -0.195090 0.961939
v -0.180240 -0.382683 0.906127
v -0.162212 -0.555570 0.815493
v -0.137950 -0.707107 0.693520
v -0.108386 -0.831470 0.544895
v -0.074658 -0.923880 0.375330
v -0.038060 -0.980785 0.191342
v -0.074658 0.980785 0.180240
v -0.146447 0.923880 0.353553
v -0.212608 0.831470 0.513280
v -0.270598 0.707107 0.653281
v -0.318190 0.555570 0.768177
v -0.353553 0.382683 0.853553
v -0.375330 0.195090 0.906127
v -0.382683 0.000000 0.923879
v -0.375330 -0.195090 0.906127
v -0.353553 -0.382683 0.853553
v -0.318190 -0.555570 0.768177
v -0.270598 -0.707107 0.653281
v -0.212608 -0.831470 0.513280
v -0.146447 -0.923880 0.353553
v -0.074658 -0.980785 0.180240
v -0.108386 0.980785 0.162212
v -0.212608 0.923880 0.318190
v -0.308658 0.831470 0.461939
v -0.392847 0.707107 0.587938
v -0.461940 0.555570 0.691341
v -0.513280 0.382683 0.768178
v -0.544895 0.195090 0.815493
v -0.555570 0.000000 0.831469
v -0.544895 -0.195090 0.815493
v -0.513280 -0.382683 0.768178
v -0.461940 -0.555570 0.691341
v -0.392847 -0.707107 0.587938
v -0.308658 -0.831470 0.461939
v -0.212608 -0.923880 0.318190
v -0.108386 -0.980785 0.162212
v -0.137950 0.980785 0.137950
v -0.270598 0.923880 0.270598
v -0.392847 0.831470 0.392847
v -0.500000 0.707107 0.500000
v -0.587938 0.555570 0.587937
v -0.653281 0.382683 0.653281
v -0.693520 0.195090 0.693520
v -0.707106 0.000000 0.707106
v -0.693520 -0.195090 0.693520
v -0.653281 -0.382683 0.653281
v -0.587938 -0.555570 0.587937
v -0.500000 -0.707107 0.500000
v -0.392847 -0.831470 0.392847
v -0.270598 -0.923880 0.270598
v -0.137950 -0.980785 0.137950
v 0.000000 -1.000000 0.000000
v -0.162212 0.980785 0.108386
v -0.318190 0.923880 0.212607
v -0.461940 0.831470 0.308658
v -0.587938 0.707107 0.392847
v -0.691341 0.555570 0.461939
v -0.768177 0.382683 0.513280
v -0.815493 0.195090 0.544895
v -0.831469 0.000000 0.555569
v -0.815493 -0.195090 0.544895
v -0.768177 -0.382683 0.513280
v -0.691341 -0.555570 0.461939
v -0.587938 -0.707107 0.392847
v -0.461940 -0.831470 0.308658
v -0.318190 -0.923880 0.212607
v -0.162212 -0.980785 0.108386
v -0.180240 0.980785 0.074658
v -0.353553 0.923880 0.146447
v -0.513280 0.831470 0.212607
v -0.653281 0.707107 0.270598
v -0.768177 0.555570 0.318189
v -0.853553 0.382683 0.353553
v -0.906127 0.195090 0.375330
v -0.923879 0.000000 0.382683
v -0.906127 -0.195090 0.375330
v -0.853553 -0.382683 0.353553
v -0.768177 -0.555570 0.318189
v -0.653281 -0.707107 0.270598
v -0.513280 -0.831470 0.212607
v -0.353553 -0.923880 0.146447
v -0.180240 -0.980785 0.074658
v -0.191342 0.980785 0.038060
v -0.375330 0.923880 0.074658
v -0.544895 0.831470 0.108386
v -0.693520 0.707107 0.137950
v -0.815493 0.555570 0.162211
v -0.906127 0.382683 0.180240
v -0.961939 0.195090 0.191341
v -0.980784 0.000000 0.195090
v -0.961939 -0.195090 0.191341
v -0.906127 -0.382683 0.180240
v -0.815493 -0.555570 0.162211
v -0.693520 -0.707107 0.137950
v -0.544895 -0.831470 0.108386
v -0.375330 -0.923880 0.074658
v -0.191342 -0.980785 0.038060
v -0.195090 0.980785 -0.000000
v -0.382683 0.923880 -0.000000
v -0.555570 0.831470 -0.000000
v -0.707107 0.707107 -0.000000
v -0.831469 0.555570 -0.000000
v -0.923879 0.382683 -0.000000
v -0.980785 0.195090 -0.000000
v -0.999999 0.000000 -0.000000
v -0.980785 -0.195090 -0.000000
v -0.923879 -0.382683 -0.000000
v -0.831469 -0.555570 -0.000000
v -0.707107 -0.707107 -0.000000
v -0.555570 -0.831470 -0.000000
v -0.382683 -0.923880 -0.000000
v -0.195090 -0.980785 -0.000000
v -0.191342 0.980785 -0.038060
v -0.375330 0.923880 -0.074658
v -0.544895 0.831470 -0.108386
v -0.693520 0.707107 -0.137950
v -0.815493 0.555570 -0.162212
v -0.906127 0.382683 -0.180240
v -0.961939 0.195090 -0.191342
v -0.980784 0.000000 -0.195091
v -0.961939 -0.195090 -0.191342
v -0.906127 -0.382683 -0.180240
v -0.815493 -0.555570 -0.162212
v -0.693520 -0.707107 -0.137950
v -0.544895 -0.831470 -0.108386
v -0.375330 -0.923880 -0.074658
v -0.191342 -0.980785 -0.038060
v -0.180240 0.980785 -0.074658
v -0.353553 0.923880 -0.146447
v -0.513279 0.831470 -0.212607
v -0.653281 0.707107 -0.270598
v -0.768177 0.555570 -0.318190
v -0.853553 0.382683 -0.353553
v -0.906127 0.195090 -0.375330
v -0.923878 0.000000 -0.382683
v -0.906127 -0.195090 -0.375330
v -0.853553 -0.382683 -0.353553
v -0.768177 -0.555570 -0.318190
v -0.653281 -0.707107 -0.270598
v -0.513279 -0.831470 -0.212607
v -0.353553 -0.923880 -0.146447
v -0.180240 -0.980785 -0.074658
v -0.162212 0.980785 -0.108386
v -0.318189 0.923880 -0.212607
v -0.461939 0.831470 -0.308658
v -0.587938 0.707107 -0.392847
v -0.691341 0.555570 -0.461940
v -0.768177 0.382683 -0.513280
v -0.815493 0.195090 -0.544895
v -0.831468 0.000000 -0.555570
v -0.815493 -0.195090 -0.544895
v -0.768177 -0.382683 -0.513280
v -0.691341 -0.555570 -0.461940
v -0.587938 -0.707107 -0.392847
v -0.461939 -0.831470 -0.308658
v -0.318189 -0.923880 -0.212607
v -0.162212 -0.980785 -0.108386
v -0.137950 0.980785 -0.137950
v -0.270598 0.923880 -0.270598
v -0.392847 0.831470 -0.392847
v -0.500000 0.707107 -0.500000
v -0.587937 0.555570 -0.587938
v -0.653281 0.382683 -0.653281
v -0.693519 0.195090 -0.693520
v -0.707106 0.000000 -0.707106
v -0.693519 -0.195090 -0.693520
v -0.653281 -0.382683 -0.653281
v -0.587937 -0.555570 -0.587938
v -0.500000 -0.707107 -0.500000
v -0.392847 -0.831470 -0.392847
v -0.270598 -0.923880 -0.270598
v -0.137950 -0.980785 -0.137950
v -0.108386 0.980785 -0.162212
v -0.212607 0.923880 -0.318190
v -0.308658 0.831470 -0.461939
v -0.392847 0.707107 -0.587938
v -0.461939 0.555570 -0.691341
v -0.513280 0.382683 -0.768177
v -0.544895 0.195090 -0.815493
v -0.555569 0.000000 -0.831469
v -0.544895 -0.195090 -0.815493
v -0.513280 -0.382683 -0.768177
v -0.461939 -0.555570 -0.691341
v -0.392847 -0.707107 -0.587938
v -0.308658 -0.831470 -0.461939
v -0.212607 -0.923880 -0.318190
v -0.108386 -0.980785 -0.162212
v -0.074658 0.980785 -0.180240
v -0.146446 0.923880 -0.353553
v -0.212607 0.831470 -0.513279
v -0.270598 0.707107 -0.653281
v -0.318189 0.555570 -0.768177
v -0.353553 0.382683 -0.853553
v -0.375330 0.195090 -0.906127
v -0.382683 0.000000 -0.923879
v -0.375330 -0.195090 -0.906127
v -0.353553 -0.382683 -0.853553
v -0.318189 -0.555570 -0.768177
v -0.270598 -0.707107 -0.653281
v -0.212607 -0.831470 -0.513279
v -0.146446 -0.923880 -0.353553
v -0.074658 -0.980785 -0.180240
v -0.038060 0.980785 -0.191342
v -0.074658 0.923880 -0.375330
v -0.108386 0.831470 -0.544895
v -0.137950 0.707107 -0.693520
v -0.162211 0.555570 -0.815493
v -0.180240 0.382683 -0.906127
v -0.191341 0.195090 -0.961939
v -0.195090 0.000000 -0.980784
v -0.191341 -0.195090 -0.961939
v -0.180240 -0.382683 -0.906127
v -0.162211 -0.555570 -0.815493
v -0.137950 -0.707107 -0.693520
v -0.108386 -0.831470 -0.544895
v -0.074658 -0.923880 -0.375330
v -0.038060 -0.980785 -0.191342
v 0.000000 0.980785 -0.195090
v 0.000000 0.923880 -0.382683
v 0.000000 0.707107 -0.707107
v 0.000000 0.382683 -0.923879
v 0.000000 -0.382683 -0.923879
v 0.000000 -0.707107 -0.707107
v 0.000000 -0.831470 -0.555570
v 0.000000 -0.923880 -0.382683
v 0.000000 -0.980785 -0.195090
vn 0.0865 -0.4696 -0.8786
vn 0.0624 0.7715 -0.6332
vn 0.0759 -0.6326 -0.7708
vn 0.0759 0.6326 -0.7708
vn 0.0624 -0.7715 -0.6332
vn 0.0865 0.4696 -0.8786
vn 0.0464 -0.8810 -0.4709
vn 0.0938 0.2890 -0.9527
vn 0.0286 -0.9565 -0.2902
vn 0.0975 0.0975 -0.9904
vn 0.0097 0.9951 -0.0980
vn 0.0097 -0.9951 -0.0980
vn 0.0975 -0.0976 -0.9904
vn 0.0286 0.9565 -0.2902
vn 0.0938 -0.2890 -0.9527
vn 0.0464 0.8810 -0.4709
vn 0.0846 0.9565 -0.2790
vn 0.2779 -0.2890 -0.9161
vn 0.1374 0.8810 -0.4528
vn 0.2563 -0.4696 -0.8448
vn 0.1847 0.7715 -0.6088
vn 0.2248 -0.6326 -0.7412
vn 0.2248 0.6326 -0.7412
vn 0.1847 -0.7715 -0.6088
vn 0.2563 0.4696 -0.8448
vn 0.1374 -0.8810 -0.4528
vn 0.2779 0.2890 -0.9161
vn 0.0846 -0.9565 -0.2790
vn 0.2889 0.0976 -0.9524
vn 0.0286 0.9951 -0.0942
vn 0.0286 -0.9951 -0.0942
vn 0.2889 -0.0976 -0.9524
vn 0.4162 0.4696 -0.7786
vn 0.2230 -0.8810 -0.4173
vn 0.4513 0.2890 -0.8443
vn 0.1374 -0.9565 -0.2571
vn 0.4691 0.0975 -0.8777
vn 0.0464 0.9951 -0.0869
vn 0.0464 -0.9951 -0.0869
vn 0.4691 -0.0975 -0.8777
vn 0.1374 0.9565 -0.2571
vn 0.4513 -0.2890 -0.8443
vn 0.2231 0.8810 -0.4173
vn 0.4162 -0.4696 -0.7786
vn 0.2999 0.7715 -0.5611
vn 0.3651 -0.6326 -0.6831
vn 0.3651 0.6326 -0.6831
vn 0.2999 -0.7715 -0.5611
vn 0.6073 -0.2890 -0.7400
vn 0.3002 0.8810 -0.3658
vn 0.5601 -0.4696 -0.6825
vn 0.4036 0.7715 -0.4918
vn 0.4913 -0.6326 -0.5987
vn 0.4913 0.6326 -0.5987
vn 0.4036 -0.7715 -0.4918
vn 0.5601 0.4696 -0.6825
vn 0.3002 -0.8810 -0.3658
vn 0.6073 0.2890 -0.7400
vn 0.1850 -0.9565 -0.2254
vn 0.6314 0.0975 -0.7693
vn 0.0625 0.9951 -0.0761
vn 0.0625 -0.9951 -0.0761
vn 0.6314 -0.0975 -0.7693
vn 0.1850 0.9565 -0.2254
vn 0.3658 -0.8810 -0.3002
vn 0.7400 0.2890 -0.6073
vn 0.2254 -0.9566 -0.1850
vn 0.7693 0.0975 -0.6314
vn 0.0761 0.9951 -0.0625
vn 0.0761 -0.9951 -0.0625
vn 0.7693 -0.0975 -0.6314
vn 0.2254 0.9565 -0.1850
vn 0.7400 -0.2890 -0.6073
vn 0.3658 0.8810 -0.3002
vn 0.6825 -0.4696 -0.5601
vn 0.4918 0.7715 -0.4036
vn 0.5987 -0.6326 -0.4913
vn 0.5987 0.6326 -0.4913
vn 0.4918 -0.7715 -0.4036
vn 0.6825 0.4696 -0.5601
vn 0.7786 -0.4696 -0.4162
vn 0.5611 0.7715 -0.2999
vn 0.6831 -0.6326 -0.3651
vn 0.6831 0.6326 -0.3651
vn 0.5611 -0.7715 -0.2999
vn 0.7786 0.4696 -0.4162
vn 0.4173 -0.8810 -0.2230
vn 0.8443 0.2890 -0.4513
vn 0.2571 -0.9565 -0.1374
vn 0.8777 0.0975 -0.4691
vn 0.0869 0.9951 -0.0464
vn 0.0869 -0.9951 -0.0464
vn 0.8777 -0.0975 -0.4691
vn 0.2571 0.9565 -0.1374
vn 0.8443 -0.2890 -0.4513
vn 0.4173 0.8810 -0.2230
vn 0.2790 -0.9565 -0.0846
vn 0.9524 0.0975 -0.2889
vn 0.0942 0.9951 -0.0286
vn 0.0942 -0.9951 -0.0286
vn 0.9524 -0.0975 -0.2889
vn 0.2790 0.9565 -0.0846
vn 0.9161 -0.2890 -0.2779
vn 0.4528 0.8810 -0.1374
vn 0.8448 -0.4696 -0.2563
vn 0.6088 0.7715 -0.1847
vn 0.7412 -0.6326 -0.2248
vn 0.7412 0.6326 -0.2248
vn 0.6088 -0.7715 -0.1847
vn 0.8448 0.4696 -0.2563
vn 0.4528 -0.8810 -0.1374
vn 0.9161 0.2890 -0.2779
vn 0.6332 0.7715 -0.0624
vn 0.7708 -0.6326 -0.0759
vn 0.7708 0.6326 -0.0759
vn 0.6332 -0.7715 -0.0624
vn 0.8786 0.4696 -0.0865
vn 0.4709 -0.8810 -0.0464
vn 0.9527 0.2890 -0.0938
vn 0.2902 -0.9565 -0.0286
vn 0.9904 0.0975 -0.0975
vn 0.0980 0.9951 -0.0097
vn 0.0980 -0.9951 -0.0097
vn 0.9904 -0.0975 -0.0975
vn 0.2902 0.9565 -0.0286
vn 0.9527 -0.2890 -0.0938
vn 0.4709 0.8810 -0.0464
vn 0.8786 -0.4696 -0.0865
vn 0.9904 0.0975 0.0976
vn 0.0980 0.9951 0.0097
vn 0.0980 -0.9951 0.0097
vn 0.9904 -0.0975 0.0976
vn 0.2902 0.9565 0.0286
vn 0.9527 -0.2890 0.0938
vn 0.4709 0.8810 0.0464
vn 0.8786 -0.4696 0.0865
vn 0.6332 0.7715 0.0624
vn 0.7708 -0.6326 0.0759
vn 0.7708 0.6326 0.0759
vn 0.6332 -0.7715 0.0624
vn 0.8786 0.4696 0.0865
vn 0.4709 -0.8810 0.0464
vn 0.9527 0.2890 0.0938
vn 0.2902 -0.9565 0.0286
vn 0.7412 -0.6326 0.2248
vn 0.7412 0.6326 0.2248
vn 0.6088 -0.7715 0.1847
vn 0.8448 0.4696 0.2563
vn 0.4528 -0.8810 0.1374
vn 0.9161 0.2890 0.2779
vn 0.2790 -0.9565 0.0846
vn 0.9524 0.0975 0.2889
vn 0.0942 0.9951 0.0286
vn 0.0942 -0.9951 0.0286
vn 0.9524 -0.0975 0.2889
vn 0.2790 0.9565 0.0846
vn 0.9161 -0.2890 0.2779
vn 0.4528 0.8810 0.1374
vn 0.8448 -0.4696 0.2563
vn 0.6088 0.7715 0.1847
vn 0.0869 0.9951 0.0464
vn 0.0869 -0.9951 0.0464
vn 0.8777 -0.0975 0.4691
vn 0.2571 0.9565 0.1374
vn 0.8443 -0.2890 0.4513
vn 0.4173 0.8810 0.2231
vn 0.7786 -0.4696 0.4162
vn 0.5611 0.7715 0.2999
vn 0.6831 -0.6326 0.3651
vn 0.6831 0.6326 0.3651
vn 0.5611 -0.7715 0.2999
vn 0.7786 0.4696 0.4162
vn 0.4173 -0.8810 0.2230
vn 0.8443 0.2890 0.4513
vn 0.2571 -0.9565 0.1374
vn 0.8777 0.0975 0.4691
vn 0.5987 0.6326 0.4913
vn 0.4918 -0.7715 0.4036
vn 0.6825 0.4696 0.5601
vn 0.3658 -0.8810 0.3002
vn 0.7400 0.2890 0.6073
vn 0.2254 -0.9565 0.1850
vn 0.7693 0.0975 0.6314
vn 0.0761 0.9951 0.0625
vn 0.0761 -0.9951 0.0625
vn 0.7693 -0.0975 0.6314
vn 0.2254 0.9565 0.1850
vn 0.7400 -0.2890 0.6073
vn 0.3658 0.8810 0.3002
vn 0.6825 -0.4696 0.5601
vn 0.4918 0.7715 0.4036
vn 0.5987 -0.6326 0.4913
vn 0.6314 -0.0975 0.7693
vn 0.1850 0.9565 0.2254
vn 0.6073 -0.2890 0.7400
vn 0.3002 0.8810 0.3658
vn 0.5601 -0.4696 0.6825
vn 0.4036 0.7715 0.4918
vn 0.4913 -0.6326 0.5987
vn 0.4913 0.6326 0.5987
vn 0.4036 -0.7715 0.4918
vn 0.5601 0.4696 0.6825
vn 0.3002 -0.8810 0.3658
vn 0.6073 0.2890 0.7400
vn 0.1850 -0.9565 0.2254
vn 0.6314 0.0975 0.7693
vn 0.0625 0.9951 0.0761
vn 0.0625 -0.9951 0.0761
vn 0.2999 -0.7715 0.5611
vn 0.4162 0.4696 0.7786
vn 0.2230 -0.8810 0.4173
vn 0.4513 0.2890 0.8443
vn 0.1374 -0.9565 0.2571
vn 0.4691 0.0975 0.8777
vn 0.0464 0.9951 0.0869
vn 0.0464 -0.9951 0.0869
vn 0.4691 -0.0975 0.8777
vn 0.1374 0.9565 0.2571
vn 0.4513 -0.2890 0.8443
vn 0.2230 0.8810 0.4173
vn 0.4162 -0.4696 0.7786
vn 0.2999 0.7715 0.5611
vn 0.3651 -0.6326 0.6831
vn 0.3651 0.6326 0.6831
vn 0.2779 -0.2890 0.9161
vn 0.1374 0.8810 0.4528
vn 0.2563 -0.4696 0.8448
vn 0.1847 0.7715 0.6088
vn 0.2248 -0.6326 0.7412
vn 0.2248 0.6326 0.7412
vn 0.1847 -0.7715 0.6088
vn 0.2563 0.4696 0.8448
vn 0.1374 -0.8810 0.4528
vn 0.2779 0.2890 0.9161
vn 0.0846 -0.9565 0.2790
vn 0.2889 0.0975 0.9524
vn 0.0286 0.9951 0.0942
vn 0.0286 -0.9951 0.0942
vn 0.2889 -0.0975 0.9524
vn 0.0846 0.9565 0.2790
vn 0.0464 -0.8810 0.4709
vn 0.0938 0.2890 0.9527
vn 0.0286 -0.9565 0.2902
vn 0.0975 0.0975 0.9904
vn 0.0097 0.9951 0.0980
vn 0.0097 -0.9951 0.0980
vn 0.0975 -0.0975 0.9904
vn 0.0286 0.9565 0.2902
vn 0.0938 -0.2890 0.9527
vn 0.0464 0.8810 0.4709
vn 0.0865 -0.4696 0.8786
vn 0.0624 0.7715 0.6332
vn 0.0759 -0.6326 0.7708
vn 0.0759 0.6326 0.7708
vn 0.0624 -0.7715 0.6332
vn 0.0865 0.4696 0.8786
vn -0.0464 0.8810 0.4709
vn -0.0865 -0.4696 0.8786
vn -0.0624 0.7715 0.6332
vn -0.0759 -0.6326 0.7708
vn -0.0759 0.6326 0.7708
vn -0.0624 -0.7715 0.6332
vn -0.0865 0.4696 0.8786
vn -0.0464 -0.8810 0.4709
vn -0.0938 0.2890 0.9527
vn -0.0286 -0.9565 0.2902
vn -0.0976 0.0975 0.9904
vn -0.0097 0.9951 0.0980
vn -0.0097 -0.9951 0.0980
vn -0.0975 -0.0975 0.9904
vn -0.0286 0.9565 0.2902
vn -0.0938 -0.2890 0.9527
vn -0.2779 0.2890 0.9161
vn -0.0846 -0.9565 0.2790
vn -0.2889 0.0975 0.9524
vn -0.0286 0.9951 0.0942
vn -0.0286 -0.9951 0.0942
vn -0.2889 -0.0975 0.9524
vn -0.0846 0.9565 0.2790
vn -0.2779 -0.2890 0.9161
vn -0.1374 0.8810 0.4528
vn -0.2563 -0.4696 0.8448
vn -0.1847 0.7715 0.6088
vn -0.2248 -0.6326 0.7412
vn -0.2248 0.6326 0.7412
vn -0.1847 -0.7715 0.6088
vn -0.2563 0.4696 0.8448
vn -0.1374 -0.8810 0.4528
vn -0.4162 -0.4696 0.7786
vn -0.2999 0.7715 0.5611
vn -0.3651 -0.6326 0.6831
vn -0.3651 0.6326 0.6831
vn -0.2999 -0.7715 0.5611
vn -0.4162 0.4696 0.7786
vn -0.2230 -0.8810 0.4173
vn -0.4513 0.2890 0.8443
vn -0.1374 -0.9565 0.2571
vn -0.4691 0.0975 0.8777
vn -0.0464 0.9951 0.0869
vn -0.0464 -0.9951 0.0869
vn -0.4691 -0.0975 0.8777
vn -0.1374 0.9565 0.2571
vn -0.4513 -0.2890 0.8443
vn -0.2230 0.8810 0.4173
vn -0.1850 -0.9565 0.2254
vn -0.6314 0.0975 0.7693
vn -0.0625 0.9951 0.0761
vn -0.0625 -0.9951 0.0761
vn -0.6314 -0.0975 0.7693
vn -0.1850 0.9565 0.2254
vn -0.6073 -0.2890 0.7400
vn -0.3002 0.8810 0.3658
vn -0.5601 -0.4696 0.6825
vn -0.4036 0.7715 0.4918
vn -0.4913 -0.6326 0.5987
vn -0.4913 0.6326 0.5987
vn -0.4036 -0.7715 0.4918
vn -0.5601 0.4696 0.6825
vn -0.3002 -0.8810 0.3658
vn -0.6073 0.2890 0.7400
vn -0.4918 0.7715 0.4036
vn -0.5987 -0.6326 0.4913
vn -0.5987 0.6326 0.4913
vn -0.4918 -0.7715 0.4036
vn -0.6825 0.4696 0.5601
vn -0.3658 -0.8810 0.3002
vn -0.7400 0.2890 0.6073
vn -0.2254 -0.9566 0.1850
vn -0.7693 0.0975 0.6314
vn -0.0761 0.9951 0.0625
vn -0.0761 -0.9951 0.0625
vn -0.7693 -0.0975 0.6314
vn -0.2254 0.9565 0.1850
vn -0.7400 -0.2890 0.6073
vn -0.3658 0.8810 0.3002
vn -0.6825 -0.4696 0.5601
vn -0.8777 0.0975 0.4691
vn -0.0869 0.9951 0.0464
vn -0.0869 -0.9951 0.0464
vn -0.8777 -0.0975 0.4691
vn -0.2571 0.9565 0.1374
vn -0.8443 -0.2890 0.4513
vn -0.4173 0.8810 0.2230
vn -0.7786 -0.4696 0.4162
vn -0.5611 0.7715 0.2999
vn -0.6831 -0.6326 0.3651
vn -0.6831 0.6326 0.3651
vn -0.5611 -0.7715 0.2999
vn -0.7786 0.4696 0.4162
vn -0.4173 -0.8810 0.2231
vn -0.8443 0.2890 0.4513
vn -0.2571 -0.9565 0.1374
vn -0.7412 -0.6326 0.2248
vn -0.7412 0.6326 0.2248
vn -0.6088 -0.7715 0.1847
vn -0.8448 0.4696 0.2563
vn -0.4528 -0.8810 0.1374
vn -0.9161 0.2890 0.2779
vn -0.2790 -0.9565 0.0846
vn -0.9524 0.0975 0.2889
vn -0.0942 0.9951 0.0286
vn -0.0942 -0.9951 0.0286
vn -0.9524 -0.0975 0.2889
vn -0.2790 0.9565 0.0846
vn -0.9161 -0.2890 0.2779
vn -0.4528 0.8810 0.1374
vn -0.8448 -0.4696 0.2563
vn -0.6088 0.7715 0.1847
vn -0.0980 -0.9951 0.0097
vn -0.9904 -0.0975 0.0976
vn -0.2902 0.9565 0.0286
vn -0.9527 -0.2890 0.0938
vn -0.4709 0.8810 0.0464
vn -0.8786 -0.4696 0.0865
vn -0.6332 0.7715 0.0624
vn -0.7708 -0.6326 0.0759
vn -0.7708 0.6326 0.0759
vn -0.6332 -0.7715 0.0624
vn -0.8786 0.4696 0.0865
vn -0.4709 -0.8810 0.0464
vn -0.9527 0.2890 0.0938
vn -0.2902 -0.9565 0.0286
vn -0.9904 0.0975 0.0975
vn -0.0980 0.9951 0.0097
vn -0.6332 -0.7715 -0.0624
vn -0.8786 0.4696 -0.0865
vn -0.4709 -0.8810 -0.0464
vn -0.9527 0.2890 -0.0938
vn -0.2902 -0.9565 -0.0286
vn -0.9904 0.0975 -0.0975
vn -0.0980 0.9951 -0.0097
vn -0.0980 -0.9951 -0.0097
vn -0.9904 -0.0975 -0.0976
vn -0.2902 0.9565 -0.0286
vn -0.9527 -0.2890 -0.0938
vn -0.4709 0.8810 -0.0464
vn -0.8786 -0.4696 -0.0865
vn -0.6332 0.7715 -0.0624
vn -0.7708 -0.6326 -0.0759
vn -0.7708 0.6326 -0.0759
vn -0.2790 0.9565 -0.0846
vn -0.9161 -0.2890 -0.2779
vn -0.4528 0.8810 -0.1374
vn -0.8448 -0.4696 -0.2563
vn -0.6088 0.7715 -0.1847
vn -0.7412 -0.6326 -0.2248
vn -0.7412 0.6326 -0.2248
vn -0.6088 -0.7715 -0.1847
vn -0.8448 0.4696 -0.2563
vn -0.4528 -0.8810 -0.1374
vn -0.9161 0.2890 -0.2779
vn -0.2790 -0.9565 -0.0846
vn -0.9524 0.0975 -0.2889
vn -0.0942 0.9951 -0.0286
vn -0.0942 -0.9951 -0.0286
vn -0.9524 -0.0975 -0.2889
vn -0.7786 0.4696 -0.4162
vn -0.4173 -0.8810 -0.2231
vn -0.8443 0.2890 -0.4513
vn -0.2571 -0.9565 -0.1374
vn -0.8777 0.0975 -0.4691
vn -0.0869 0.9951 -0.0464
vn -0.0869 -0.9951 -0.0464
vn -0.8777 -0.0975 -0.4691
vn -0.2571 0.9565 -0.1374
vn -0.8443 -0.2890 -0.4513
vn -0.4173 0.8810 -0.2231
vn -0.7786 -0.4696 -0.4162
vn -0.5611 0.7715 -0.2999
vn -0.6831 -0.6326 -0.3651
vn -0.6831 0.6326 -0.3651
vn -0.5611 -0.7715 -0.2999
vn -0.7400 -0.2890 -0.6073
vn -0.3658 0.8810 -0.3002
vn -0.6825 -0.4696 -0.5601
vn -0.4918 0.7715 -0.4036
vn -0.5987 -0.6326 -0.4913
vn -0.5987 0.6326 -0.4913
vn -0.4918 -0.7715 -0.4036
vn -0.6825 0.4696 -0.5601
vn -0.3658 -0.8810 -0.3002
vn -0.7400 0.2890 -0.6073
vn -0.2254 -0.9565 -0.1850
vn -0.7693 0.0975 -0.6314
vn -0.0761 0.9951 -0.0625
vn -0.0761 -0.9951 -0.0625
vn -0.7693 -0.0975 -0.6314
vn -0.2254 0.9565 -0.1850
vn -0.3002 -0.8810 -0.3658
vn -0.6073 0.2890 -0.7400
vn -0.1850 -0.9565 -0.2254
vn -0.6314 0.0975 -0.7693
vn -0.0625 0.9951 -0.0761
vn -0.0625 -0.9951 -0.0761
vn -0.6314 -0.0975 -0.7693
vn -0.1850 0.9565 -0.2254
vn -0.6073 -0.2890 -0.7400
vn -0.3002 0.8810 -0.3658
vn -0.5601 -0.4696 -0.6825
vn -0.4036 0.7715 -0.4918
vn -0.4913 -0.6326 -0.5987
vn -0.4913 0.6326 -0.5987
vn -0.4036 -0.7715 -0.4918
vn -0.5601 0.4696 -0.6825
vn -0.2230 0.8810 -0.4173
vn -0.4162 -0.4696 -0.7786
vn -0.2999 0.7715 -0.5611
vn -0.3651 -0.6326 -0.6831
vn -0.3651 0.6326 -0.6831
vn -0.2999 -0.7715 -0.5611
vn -0.4162 0.4696 -0.7786
vn -0.2230 -0.8810 -0.4173
vn -0.4513 0.2890 -0.8443
vn -0.1374 -0.9565 -0.2571
vn -0.4691 0.0975 -0.8777
vn -0.0464 0.9951 -0.0869
vn -0.0464 -0.9951 -0.0869
vn -0.4691 -0.0975 -0.8777
vn -0.1374 0.9565 -0.2571
vn -0.4513 -0.2890 -0.8443
vn -0.2779 0.2890 -0.9161
vn -0.0846 -0.9565 -0.2790
vn -0.2889 0.0975 -0.9524
vn -0.0286 0.9951 -0.0942
vn -0.0286 -0.9951 -0.0942
vn -0.2889 -0.0975 -0.9524
vn -0.0846 0.9565 -0.2790
vn -0.2779 -0.2890 -0.9161
vn -0.1374 0.8810 -0.4528
vn -0.2563 -0.4696 -0.8448
vn -0.1847 0.7715 -0.6088
vn -0.2248 -0.6326 -0.7412
vn -0.2248 0.6326 -0.7412
vn -0.1847 -0.7715 -0.6088
vn -0.2563 0.4696 -0.8448
vn -0.1374 -0.8810 -0.4528
vn -0.0865 -0.4696 -0.8786
vn -0.0624 0.7715 -0.6332
vn -0.0759 -0.6326 -0.7708
vn -0.0759 0.6326 -0.7708
vn -0.0624 -0.7715 -0.6332
vn -0.0865 0.4696 -0.8786
vn -0.0464 -0.8810 -0.4709
vn -0.0938 0.2890 -0.9527
vn -0.0286 -0.9565 -0.2902
vn -0.0976 0.0975 -0.9904
vn -0.0097 0.9951 -0.0980
vn -0.0097 -0.9951 -0.0980
vn -0.0976 -0.0975 -0.9904
vn -0.0286 0.9565 -0.2902
vn -0.0938 -0.2890 -0.9527
vn -0.0464 0.8810 -0.4709
vn 0.0975 0.0976 -0.9904
vn 0.0975 -0.0975 -0.9904
vn 0.2231 -0.8810 -0.4173
vn 0.2230 0.8810 -0.4173
vn 0.2254 -0.9565 -0.1850
vn 0.4173 0.8810 0.2230
vn 0.4173 -0.8810 0.2231
vn 0.2231 -0.8810 0.4173
vn -0.0975 0.0975 0.9904
vn -0.0976 -0.0975 0.9904
vn -0.2231 -0.8810 0.4173
vn -0.2231 0.8810 0.4173
vn -0.2254 -0.9565 0.1850
vn -0.4173 -0.8810 0.2230
vn -0.9904 -0.0975 0.0975
vn -0.9904 0.0975 0.0976
vn -0.9904 0.0975 -0.0976
vn -0.9904 -0.0975 -0.0975
vt 0.375025 0.250050
vt 0.312537 0.281294
vt 0.312538 0.250050
vt 0.749950 0.250050
vt 0.812438 0.281294
vt 0.749950 0.281294
vt 0.250050 0.281294
vt 0.250050 0.250050
vt 0.687463 0.250050
vt 0.687463 0.281294
vt 0.187562 0.281294
vt 0.187562 0.250050
vt 0.624975 0.250050
vt 0.624975 0.281294
vt 0.125075 0.281294
vt 0.125075 0.250050
vt 0.562487 0.250050
vt 0.562487 0.281294
vt 0.062587 0.281294
vt 0.062587 0.250050
vt 0.500000 0.281294
vt 0.500000 0.250050
vt 0.937413 0.250050
vt 0.999900 0.265672
vt 0.937413 0.281294
vt 0.000100 0.265672
vt 0.437513 0.281294
vt 0.437513 0.250050
vt 0.874925 0.250050
vt 0.874925 0.281294
vt 0.375025 0.281294
vt 0.812438 0.250050
vt 0.874925 0.312537
vt 0.375025 0.312537
vt 0.812438 0.312537
vt 0.312537 0.312537
vt 0.749950 0.312537
vt 0.250050 0.312537
vt 0.687463 0.312537
vt 0.187562 0.312537
vt 0.624975 0.312537
vt 0.125075 0.312537
vt 0.562487 0.312537
vt 0.062587 0.312537
vt 0.500000 0.312537
vt 0.999900 0.296916
vt 0.937413 0.312537
vt 0.000100 0.296916
vt 0.437513 0.312537
vt 0.624975 0.343781
vt 0.125075 0.343781
vt 0.562487 0.343781
vt 0.062587 0.343781
vt 0.500000 0.343781
vt 0.999900 0.328159
vt 0.937413 0.343781
vt 0.000100 0.328159
vt 0.437513 0.343781
vt 0.874925 0.343781
vt 0.375025 0.343781
vt 0.812438 0.343781
vt 0.312537 0.343781
vt 0.749950 0.343781
vt 0.250050 0.343781
vt 0.687463 0.343781
vt 0.187562 0.343781
vt 0.375025 0.375025
vt 0.812438 0.375025
vt 0.312537 0.375025
vt 0.749950 0.375025
vt 0.250050 0.375025
vt 0.687463 0.375025
vt 0.187563 0.375025
vt 0.624975 0.375025
vt 0.125075 0.375025
vt 0.562488 0.375025
vt 0.062587 0.375025
vt 0.500000 0.375025
vt 0.999900 0.359403
vt 0.937413 0.375025
vt 0.000100 0.359403
vt 0.437513 0.375025
vt 0.874925 0.375025
vt 0.187563 0.406269
vt 0.125075 0.406269
vt 0.624975 0.406269
vt 0.562488 0.406269
vt 0.062587 0.406269
vt 0.500000 0.406269
vt 0.999900 0.390647
vt 0.937413 0.406269
vt 0.000100 0.390647
vt 0.437513 0.406269
vt 0.874925 0.406269
vt 0.375025 0.406269
vt 0.812438 0.406269
vt 0.312537 0.406269
vt 0.749950 0.406269
vt 0.250050 0.406269
vt 0.687463 0.406269
vt 0.375025 0.437512
vt 0.312537 0.437512
vt 0.749950 0.437512
vt 0.250050 0.437512
vt 0.687463 0.437512
vt 0.187563 0.437512
vt 0.624975 0.437512
vt 0.125075 0.437513
vt 0.562488 0.437512
vt 0.062587 0.437513
vt 0.500000 0.437512
vt 0.999900 0.421891
vt 0.937413 0.437512
vt 0.000100 0.421891
vt 0.437513 0.437512
vt 0.874925 0.437512
vt 0.812438 0.437512
vt 0.062587 0.468756
vt 0.562488 0.468756
vt 0.500000 0.468756
vt 0.999900 0.453134
vt 0.937413 0.468756
vt 0.000100 0.453134
vt 0.437513 0.468756
vt 0.874925 0.468756
vt 0.375025 0.468756
vt 0.812438 0.468756
vt 0.312537 0.468756
vt 0.749950 0.468756
vt 0.250050 0.468756
vt 0.687463 0.468756
vt 0.187563 0.468756
vt 0.624975 0.468756
vt 0.125075 0.468756
vt 0.749950 0.500000
vt 0.250050 0.500000
vt 0.687463 0.500000
vt 0.187563 0.500000
vt 0.624975 0.500000
vt 0.125075 0.500000
vt 0.562488 0.500000
vt 0.062587 0.500000
vt 0.500000 0.500000
vt 0.999900 0.484378
vt 0.937413 0.500000
vt 0.000100 0.484378
vt 0.437513 0.500000
vt 0.874925 0.500000
vt 0.375025 0.500000
vt 0.812438 0.500000
vt 0.312537 0.500000
vt 0.562488 0.531244
vt 0.500000 0.531244
vt 0.999900 0.515622
vt 0.937413 0.531244
vt 0.000100 0.515622
vt 0.062587 0.531244
vt 0.437513 0.531244
vt 0.874925 0.531244
vt 0.375025 0.531244
vt 0.812438 0.531244
vt 0.312537 0.531244
vt 0.749950 0.531244
vt 0.250050 0.531244
vt 0.687463 0.531244
vt 0.187563 0.531244
vt 0.624975 0.531244
vt 0.125075 0.531244
vt 0.250050 0.562487
vt 0.749950 0.562487
vt 0.687463 0.562487
vt 0.187563 0.562488
vt 0.624975 0.562487
vt 0.125075 0.562487
vt 0.562488 0.562487
vt 0.062587 0.562487
vt 0.500000 0.562488
vt 0.999900 0.546866
vt 0.937413 0.562487
vt 0.000100 0.546866
vt 0.437513 0.562487
vt 0.874925 0.562487
vt 0.375025 0.562487
vt 0.812438 0.562487
vt 0.312537 0.562488
vt 0.999900 0.578109
vt 0.937413 0.593731
vt 0.000100 0.578109
vt 0.062587 0.593731
vt 0.437513 0.593731
vt 0.874925 0.593731
vt 0.375025 0.593731
vt 0.812438 0.593731
vt 0.312537 0.593731
vt 0.749950 0.593731
vt 0.250050 0.593731
vt 0.687463 0.593731
vt 0.187563 0.593731
vt 0.624975 0.593731
vt 0.125075 0.593731
vt 0.562488 0.593731
vt 0.500000 0.593731
vt 0.749950 0.624975
vt 0.687463 0.624975
vt 0.187563 0.624975
vt 0.624975 0.624975
vt 0.125075 0.624975
vt 0.562488 0.624975
vt 0.062587 0.624975
vt 0.500000 0.624975
vt 0.999900 0.609353
vt 0.937413 0.624975
vt 0.000100 0.609353
vt 0.437513 0.624975
vt 0.874925 0.624975
vt 0.375025 0.624975
vt 0.812438 0.624975
vt 0.312537 0.624975
vt 0.250050 0.624975
vt 0.437513 0.656219
vt 0.937413 0.656219
vt 0.874925 0.656219
vt 0.375025 0.656219
vt 0.812438 0.656219
vt 0.312537 0.656219
vt 0.749950 0.656219
vt 0.250050 0.656219
vt 0.687463 0.656219
vt 0.187563 0.656219
vt 0.624975 0.656219
vt 0.125075 0.656219
vt 0.562488 0.656219
vt 0.062587 0.656219
vt 0.500000 0.656219
vt 0.999900 0.640597
vt 0.000100 0.640597
vt 0.250050 0.687463
vt 0.187563 0.687463
vt 0.624975 0.687463
vt 0.125075 0.687463
vt 0.562488 0.687463
vt 0.062587 0.687463
vt 0.500000 0.687463
vt 0.999900 0.671841
vt 0.937413 0.687462
vt 0.000100 0.671841
vt 0.437513 0.687463
vt 0.874925 0.687462
vt 0.375025 0.687463
vt 0.812438 0.687463
vt 0.312537 0.687463
vt 0.749950 0.687463
vt 0.687463 0.687463
vt 0.375025 0.718706
vt 0.812438 0.718706
vt 0.312537 0.718706
vt 0.749950 0.718706
vt 0.250050 0.718706
vt 0.687463 0.718706
vt 0.187563 0.718706
vt 0.624975 0.718706
vt 0.125075 0.718706
vt 0.562488 0.718706
vt 0.062587 0.718706
vt 0.500000 0.718706
vt 0.999900 0.703084
vt 0.937413 0.718706
vt 0.000100 0.703084
vt 0.437513 0.718706
vt 0.874925 0.718706
vt 0.125075 0.749950
vt 0.624975 0.749950
vt 0.562488 0.749950
vt 0.062587 0.749950
vt 0.500000 0.749950
vt 0.999900 0.734328
vt 0.937413 0.749950
vt 0.000100 0.734328
vt 0.437513 0.749950
vt 0.874925 0.749950
vt 0.375025 0.749950
vt 0.812438 0.749950
vt 0.312537 0.749950
vt 0.749950 0.749950
vt 0.250050 0.749950
vt 0.687463 0.749950
vt 0.187563 0.749950
vt 0.812438 0.781194
vt 0.375025 0.781194
vt 0.312537 0.781194
vt 0.749950 0.781194
vt 0.250050 0.781194
vt 0.687463 0.781194
vt 0.187563 0.781194
vt 0.624975 0.781194
vt 0.125075 0.781194
vt 0.562488 0.781194
vt 0.062587 0.781194
vt 0.500000 0.781194
vt 0.999900 0.765572
vt 0.937413 0.781194
vt 0.000100 0.765572
vt 0.437513 0.781194
vt 0.874925 0.781194
vt 0.624975 0.812437
vt 0.562488 0.812438
vt 0.062587 0.812438
vt 0.500000 0.812438
vt 0.999900 0.796816
vt 0.937413 0.812437
vt 0.000100 0.796816
vt 0.437513 0.812438
vt 0.874925 0.812437
vt 0.375025 0.812437
vt 0.812438 0.812438
vt 0.312537 0.812437
vt 0.749950 0.812437
vt 0.250050 0.812438
vt 0.687463 0.812437
vt 0.187563 0.812438
vt 0.125075 0.812438
vt 0.375025 0.843681
vt 0.312537 0.843681
vt 0.749950 0.843681
vt 0.250050 0.843681
vt 0.687463 0.843681
vt 0.187562 0.843681
vt 0.624975 0.843681
vt 0.125075 0.843681
vt 0.562488 0.843681
vt 0.062587 0.843681
vt 0.500000 0.843681
vt 0.999900 0.828059
vt 0.937413 0.843681
vt 0.000100 0.828059
vt 0.437513 0.843681
vt 0.874925 0.843681
vt 0.812438 0.843681
vt 0.125075 0.874925
vt 0.062587 0.874925
vt 0.562488 0.874925
vt 0.500000 0.874925
vt 0.999900 0.859303
vt 0.937413 0.874925
vt 0.000100 0.859303
vt 0.437513 0.874925
vt 0.874925 0.874925
vt 0.375025 0.874925
vt 0.812438 0.874925
vt 0.312537 0.874925
vt 0.749950 0.874925
vt 0.250050 0.874925
vt 0.687463 0.874925
vt 0.187562 0.874925
vt 0.624975 0.874925
vt 0.749950 0.906169
vt 0.250050 0.906169
vt 0.687463 0.906169
vt 0.187562 0.906169
vt 0.624975 0.906169
vt 0.125075 0.906169
vt 0.562488 0.906169
vt 0.062587 0.906169
vt 0.500000 0.906169
vt 0.999900 0.890547
vt 0.937413 0.906169
vt 0.000100 0.890547
vt 0.437513 0.906169
vt 0.874925 0.906169
vt 0.375025 0.906169
vt 0.812438 0.906169
vt 0.312537 0.906169
vt 0.562488 0.937413
vt 0.500000 0.937413
vt 0.999900 0.921791
vt 0.937413 0.937413
vt 0.000100 0.921791
vt 0.062587 0.937413
vt 0.437513 0.937413
vt 0.874925 0.937413
vt 0.375025 0.937413
vt 0.812438 0.937413
vt 0.312537 0.937413
vt 0.749950 0.937412
vt 0.250050 0.937413
vt 0.687463 0.937413
vt 0.187562 0.937413
vt 0.624975 0.937412
vt 0.125075 0.937413
vt 0.250050 0.968656
vt 0.749950 0.968656
vt 0.687463 0.968656
vt 0.187562 0.968656
vt 0.624975 0.968656
vt 0.125075 0.968656
vt 0.562488 0.968656
vt 0.062587 0.968656
vt 0.500000 0.968656
vt 0.999900 0.953034
vt 0.937413 0.968656
vt 0.000100 0.953034
vt 0.437513 0.968656
vt 0.874925 0.968656
vt 0.375025 0.968656
vt 0.812438 0.968656
vt 0.312537 0.968656
vt 0.000100 0.984278
vt 0.062587 0.999900
vt 0.437513 0.999900
vt 0.874925 0.999900
vt 0.375025 0.999900
vt 0.812438 0.999900
vt 0.312537 0.999900
vt 0.749950 0.999900
vt 0.250050 0.999900
vt 0.687463 0.999900
vt 0.187562 0.999900
vt 0.624975 0.999900
vt 0.125075 0.999900
vt 0.562488 0.999900
vt 0.500000 0.999900
vt 0.999900 0.984278
vt 0.937413 0.999900
vt 0.187562 0.000100
vt 0.250050 0.031344
vt 0.187562 0.031344
vt 0.687463 0.000100
vt 0.624975 0.031344
vt 0.624975 0.000100
vt 0.125075 0.031344
vt 0.125075 0.000100
vt 0.562487 0.000100
vt 0.562487 0.031344
vt 0.062587 0.031344
vt 0.062587 0.000100
vt 0.500000 0.000100
vt 0.500000 0.031344
vt 0.937413 0.000100
vt 0.999900 0.015722
vt 0.937413 0.031344
vt 0.000100 0.015722
vt 0.437512 0.031344
vt 0.437512 0.000100
vt 0.874925 0.031344
vt 0.874925 0.000100
vt 0.375025 0.031344
vt 0.375025 0.000100
vt 0.812438 0.000100
vt 0.812438 0.031344
vt 0.312537 0.000100
vt 0.312537 0.031344
vt 0.749950 0.031344
vt 0.749950 0.000100
vt 0.250050 0.000100
vt 0.687463 0.031344
vt 0.874925 0.062587
vt 0.375025 0.062587
vt 0.812438 0.062588
vt 0.312537 0.062588
vt 0.749950 0.062587
vt 0.250050 0.062587
vt 0.687463 0.062588
vt 0.187562 0.062588
vt 0.624975 0.062587
vt 0.125075 0.062587
vt 0.562488 0.062588
vt 0.062587 0.062587
vt 0.500000 0.062588
vt 0.999900 0.046966
vt 0.937413 0.062587
vt 0.000100 0.046966
vt 0.437512 0.062588
vt 0.624975 0.093831
vt 0.187562 0.093831
vt 0.125075 0.093831
vt 0.562488 0.093831
vt 0.062587 0.093831
vt 0.500000 0.093831
vt 0.999900 0.078209
vt 0.937413 0.093831
vt 0.000100 0.078209
vt 0.437512 0.093831
vt 0.874925 0.093831
vt 0.375025 0.093831
vt 0.812438 0.093831
vt 0.312537 0.093831
vt 0.749950 0.093831
vt 0.250050 0.093831
vt 0.687463 0.093831
vt 0.375025 0.125075
vt 0.874925 0.125075
vt 0.812438 0.125075
vt 0.312537 0.125075
vt 0.749950 0.125075
vt 0.250050 0.125075
vt 0.687463 0.125075
vt 0.187562 0.125075
vt 0.624975 0.125075
vt 0.125075 0.125075
vt 0.562488 0.125075
vt 0.062587 0.125075
vt 0.500000 0.125075
vt 0.999900 0.109453
vt 0.937413 0.125075
vt 0.000100 0.109453
vt 0.437512 0.125075
vt 0.125075 0.156319
vt 0.624975 0.156319
vt 0.562488 0.156319
vt 0.062587 0.156319
vt 0.500000 0.156319
vt 0.999900 0.140697
vt 0.937413 0.156319
vt 0.000100 0.140697
vt 0.437512 0.156319
vt 0.874925 0.156319
vt 0.375025 0.156319
vt 0.812438 0.156319
vt 0.312537 0.156319
vt 0.749950 0.156319
vt 0.250050 0.156319
vt 0.687463 0.156319
vt 0.187562 0.156319
vt 0.812438 0.187563
vt 0.375025 0.187562
vt 0.312537 0.187563
vt 0.749950 0.187562
vt 0.250050 0.187562
vt 0.687463 0.187563
vt 0.187562 0.187563
vt 0.624975 0.187562
vt 0.125075 0.187562
vt 0.562488 0.187563
vt 0.062587 0.187562
vt 0.500000 0.187563
vt 0.999900 0.171941
vt 0.937413 0.187562
vt 0.000100 0.171941
vt 0.437513 0.187563
vt 0.874925 0.187562
vt 0.624975 0.218806
vt 0.562488 0.218806
vt 0.125075 0.218806
vt 0.062587 0.218806
vt 0.500000 0.218806
vt 0.999900 0.203184
vt 0.937413 0.218806
vt 0.000100 0.203184
vt 0.437513 0.218806
vt 0.874925 0.218806
vt 0.375025 0.218806
vt 0.812438 0.218806
vt 0.312537 0.218806
vt 0.749950 0.218806
vt 0.250050 0.218806
vt 0.687463 0.218806
vt 0.187562 0.218806
vt 0.999900 0.234428
vt 0.000100 0.234428
s 0
usemtl マテリアル
f 478/1/1 17/2/1 6/3/1
f 476/4/2 9/5/2 10/6/2
f 6/3/3 18/7/3 479/8/3
f 2/9/4 10/6/4 11/10/4
f 479/8/5 19/11/5 480/12/5
f 477/13/6 11/10/6 12/14/6
f 480/12/7 20/15/7 481/16/7
f 3/17/8 12/14/8 13/18/8
f 481/16/9 21/19/9 482/20/9
f 3/17/10 14/21/10 4/22/10
f 474/23/11 82/24/11 7/25/11
f 308/26/12 482/20/12 21/19/12
f 4/22/13 15/27/13 5/28/13
f 475/29/14 7/25/14 8/30/14
f 5/28/15 16/31/15 478/1/15
f 1/32/16 8/30/16 9/5/16
f 7/25/17 23/33/17 8/30/17
f 15/27/18 31/34/18 16/31/18
f 8/30/19 24/35/19 9/5/19
f 16/31/20 32/36/20 17/2/20
f 9/5/21 25/37/21 10/6/21
f 17/2/22 33/38/22 18/7/22
f 10/6/23 26/39/23 11/10/23
f 19/11/24 33/38/24 34/40/24
f 11/10/25 27/41/25 12/14/25
f 20/15/26 34/40/26 35/42/26
f 13/18/27 27/41/27 28/43/27
f 20/15/28 36/44/28 21/19/28
f 13/18/29 29/45/29 14/21/29
f 7/25/30 82/46/30 22/47/30
f 308/48/31 21/19/31 36/44/31
f 14/21/32 30/49/32 15/27/32
f 26/39/33 42/50/33 27/41/33
f 34/40/34 50/51/34 35/42/34
f 27/41/35 43/52/35 28/43/35
f 35/42/36 51/53/36 36/44/36
f 28/43/37 44/54/37 29/45/37
f 22/47/38 82/55/38 37/56/38
f 308/57/39 36/44/39 51/53/39
f 30/49/40 44/54/40 45/58/40
f 22/47/41 38/59/41 23/33/41
f 30/49/42 46/60/42 31/34/42
f 23/33/43 39/61/43 24/35/43
f 32/36/44 46/60/44 47/62/44
f 24/35/45 40/63/45 25/37/45
f 33/38/46 47/62/46 48/64/46
f 25/37/47 41/65/47 26/39/47
f 34/40/48 48/64/48 49/66/48
f 45/58/49 61/67/49 46/60/49
f 38/59/50 54/68/50 39/61/50
f 47/62/51 61/67/51 62/69/51
f 39/61/52 55/70/52 40/63/52
f 47/62/53 63/71/53 48/64/53
f 40/63/54 56/72/54 41/65/54
f 48/64/55 64/73/55 49/66/55
f 41/65/56 57/74/56 42/50/56
f 49/66/57 65/75/57 50/51/57
f 43/52/58 57/74/58 58/76/58
f 50/51/59 66/77/59 51/53/59
f 44/54/60 58/76/60 59/78/60
f 37/56/61 82/79/61 52/80/61
f 308/81/62 51/53/62 66/77/62
f 44/54/63 60/82/63 45/58/63
f 37/56/64 53/83/64 38/59/64
f 65/75/65 79/84/65 80/85/65
f 58/76/66 72/86/66 73/87/66
f 65/75/67 81/88/67 66/77/67
f 59/78/68 73/87/68 74/89/68
f 52/80/69 82/90/69 67/91/69
f 308/92/70 66/77/70 81/88/70
f 59/78/71 75/93/71 60/82/71
f 52/80/72 68/94/72 53/83/72
f 60/82/73 76/95/73 61/67/73
f 53/83/74 69/96/74 54/68/74
f 62/69/75 76/95/75 77/97/75
f 54/68/76 70/98/76 55/70/76
f 62/69/77 78/99/77 63/71/77
f 56/72/78 70/98/78 71/100/78
f 63/71/79 79/84/79 64/73/79
f 56/72/80 72/86/80 57/74/80
f 77/97/81 92/101/81 93/102/81
f 69/96/82 86/103/82 70/98/82
f 77/97/83 94/104/83 78/99/83
f 71/100/84 86/103/84 87/105/84
f 78/99/85 95/106/85 79/84/85
f 71/100/86 88/107/86 72/86/86
f 79/84/87 96/108/87 80/85/87
f 73/87/88 88/107/88 89/109/88
f 81/88/89 96/108/89 97/110/89
f 74/89/90 89/109/90 90/111/90
f 67/91/91 82/112/91 83/113/91
f 308/114/92 81/88/92 97/110/92
f 74/89/93 91/115/93 75/93/93
f 67/91/94 84/116/94 68/94/94
f 75/93/95 92/101/95 76/95/95
f 68/94/96 85/117/96 69/96/96
f 96/108/97 112/118/97 97/110/97
f 90/111/98 104/119/98 105/120/98
f 83/113/99 82/121/99 98/122/99
f 308/123/100 97/110/100 112/118/100
f 90/111/101 106/124/101 91/115/101
f 84/116/102 98/122/102 99/125/102
f 91/115/103 107/126/103 92/101/103
f 84/116/104 100/127/104 85/117/104
f 93/102/105 107/126/105 108/128/105
f 85/117/106 101/129/106 86/103/106
f 93/102/107 109/130/107 94/104/107
f 87/105/108 101/129/108 102/131/108
f 95/106/109 109/130/109 110/132/109
f 87/105/110 103/133/110 88/107/110
f 96/108/111 110/132/111 111/134/111
f 89/109/112 103/133/112 104/119/112
f 100/127/113 116/135/113 101/129/113
f 108/128/114 124/136/114 109/130/114
f 102/131/115 116/135/115 117/137/115
f 110/132/116 124/136/116 125/138/116
f 102/131/117 118/139/117 103/133/117
f 110/132/118 126/140/118 111/134/118
f 104/119/119 118/139/119 119/141/119
f 111/134/120 127/142/120 112/118/120
f 105/120/121 119/141/121 120/143/121
f 98/122/122 82/144/122 113/145/122
f 308/146/123 112/118/123 127/142/123
f 105/120/124 121/147/124 106/124/124
f 99/125/125 113/145/125 114/148/125
f 106/124/126 122/149/126 107/126/126
f 99/125/127 115/150/127 100/127/127
f 108/128/128 122/149/128 123/151/128
f 120/143/129 134/152/129 135/153/129
f 113/145/130 82/154/130 128/155/130
f 308/156/131 127/142/131 142/157/131
f 120/143/132 136/158/132 121/147/132
f 113/145/133 129/159/133 114/148/133
f 121/147/134 137/160/134 122/149/134
f 114/148/135 130/161/135 115/150/135
f 123/151/136 137/160/136 138/162/136
f 115/150/137 131/163/137 116/135/137
f 123/151/138 139/164/138 124/136/138
f 117/137/139 131/163/139 132/165/139
f 125/138/140 139/164/140 140/166/140
f 117/137/141 133/167/141 118/139/141
f 125/138/142 141/168/142 126/140/142
f 119/141/143 133/167/143 134/152/143
f 126/140/144 142/157/144 127/142/144
f 138/162/145 154/169/145 139/164/145
f 132/165/146 146/170/146 147/171/146
f 140/166/147 154/169/147 155/172/147
f 132/165/148 148/173/148 133/167/148
f 140/166/149 156/174/149 141/168/149
f 134/152/150 148/173/150 149/175/150
f 142/157/151 156/174/151 157/176/151
f 135/153/152 149/175/152 150/177/152
f 128/155/153 82/178/153 143/179/153
f 308/180/154 142/157/154 157/176/154
f 135/153/155 151/181/155 136/158/155
f 128/155/156 144/182/156 129/159/156
f 136/158/157 152/183/157 137/160/157
f 130/161/158 144/182/158 145/184/158
f 138/162/159 152/183/159 153/185/159
f 130/161/160 146/170/160 131/163/160
f 143/179/161 82/186/161 158/187/161
f 308/188/162 157/176/162 172/189/162
f 150/177/163 166/190/163 151/181/163
f 143/179/164 159/191/164 144/182/164
f 151/181/165 167/192/165 152/183/165
f 145/184/166 159/191/166 160/193/166
f 153/185/167 167/192/167 168/194/167
f 145/184/168 161/195/168 146/170/168
f 153/185/169 169/196/169 154/169/169
f 147/171/170 161/195/170 162/197/170
f 155/172/171 169/196/171 170/198/171
f 147/171/172 163/199/172 148/173/172
f 155/172/173 171/200/173 156/174/173
f 149/175/174 163/199/174 164/201/174
f 156/174/175 172/189/175 157/176/175
f 150/177/176 164/201/176 165/202/176
f 162/197/177 176/203/177 177/204/177
f 169/196/178 185/205/178 170/198/178
f 162/197/179 178/206/179 163/199/179
f 171/200/180 185/205/180 186/207/180
f 164/201/181 178/206/181 179/208/181
f 172/189/182 186/207/182 187/209/182
f 165/202/183 179/208/183 180/210/183
f 158/187/184 82/211/184 173/212/184
f 308/213/185 172/189/185 187/209/185
f 165/202/186 181/214/186 166/190/186
f 158/187/187 174/215/187 159/191/187
f 166/190/188 182/216/188 167/192/188
f 159/191/189 175/217/189 160/193/189
f 168/194/190 182/216/190 183/218/190
f 160/193/191 176/203/191 161/195/191
f 168/194/192 184/219/192 169/196/192
f 180/210/193 196/220/193 181/214/193
f 174/215/194 188/221/194 189/222/194
f 181/214/195 197/223/195 182/216/195
f 175/217/196 189/222/196 190/224/196
f 183/218/197 197/223/197 198/225/197
f 175/217/198 191/226/198 176/203/198
f 183/218/199 199/227/199 184/219/199
f 177/204/200 191/226/200 192/228/200
f 185/205/201 199/227/201 200/229/201
f 177/204/202 193/230/202 178/206/202
f 185/205/203 201/231/203 186/207/203
f 179/208/204 193/230/204 194/232/204
f 186/207/205 202/233/205 187/209/205
f 180/210/206 194/232/206 195/234/206
f 173/212/207 82/235/207 188/221/207
f 308/236/208 187/209/208 202/233/208
f 200/229/209 214/237/209 215/238/209
f 192/228/210 208/239/210 193/230/210
f 200/229/211 216/240/211 201/231/211
f 194/232/212 208/239/212 209/241/212
f 201/231/213 217/242/213 202/233/213
f 195/234/214 209/241/214 210/243/214
f 188/221/215 82/244/215 203/245/215
f 308/246/216 202/233/216 217/242/216
f 195/234/217 211/247/217 196/220/217
f 188/221/218 204/248/218 189/222/218
f 196/220/219 212/249/219 197/223/219
f 189/222/220 205/250/220 190/224/220
f 198/225/221 212/249/221 213/251/221
f 190/224/222 206/252/222 191/226/222
f 198/225/223 214/237/223 199/227/223
f 192/228/224 206/252/224 207/253/224
f 211/247/225 227/254/225 212/249/225
f 204/248/226 220/255/226 205/250/226
f 213/251/227 227/254/227 228/256/227
f 205/250/228 221/257/228 206/252/228
f 213/251/229 229/258/229 214/237/229
f 207/253/230 221/257/230 222/259/230
f 215/238/231 229/258/231 230/260/231
f 207/253/232 223/261/232 208/239/232
f 215/238/233 231/262/233 216/240/233
f 209/241/234 223/261/234 224/263/234
f 216/240/235 232/264/235 217/242/235
f 210/243/236 224/263/236 225/265/236
f 203/245/237 82/266/237 218/267/237
f 308/268/238 217/242/238 232/264/238
f 210/243/239 226/269/239 211/247/239
f 203/245/240 219/270/240 204/248/240
f 230/260/241 246/271/241 231/262/241
f 224/263/242 238/272/242 239/273/242
f 232/264/243 246/271/243 247/274/243
f 225/265/244 239/273/244 240/275/244
f 218/267/245 82/276/245 233/277/245
f 308/278/246 232/264/246 247/274/246
f 225/265/247 241/279/247 226/269/247
f 218/267/248 234/280/248 219/270/248
f 226/269/249 242/281/249 227/254/249
f 220/255/250 234/280/250 235/282/250
f 228/256/251 242/281/251 243/283/251
f 220/255/252 236/284/252 221/257/252
f 228/256/253 244/285/253 229/258/253
f 222/259/254 236/284/254 237/286/254
f 230/260/255 244/285/255 245/287/255
f 222/259/256 238/272/256 223/261/256
f 234/280/257 250/288/257 235/282/257
f 243/283/258 257/289/258 258/290/258
f 235/282/259 251/291/259 236/284/259
f 243/283/260 259/292/260 244/285/260
f 237/286/261 251/291/261 252/293/261
f 245/287/262 259/292/262 260/294/262
f 237/286/263 253/295/263 238/272/263
f 245/287/264 261/296/264 246/271/264
f 239/273/265 253/295/265 254/297/265
f 246/271/266 262/298/266 247/274/266
f 240/275/267 254/297/267 255/299/267
f 233/277/268 82/300/268 248/301/268
f 308/302/269 247/274/269 262/298/269
f 240/275/270 256/303/270 241/279/270
f 233/277/271 249/304/271 234/280/271
f 241/279/272 257/289/272 242/281/272
f 254/297/273 268/305/273 269/306/273
f 261/296/274 277/307/274 262/298/274
f 255/299/275 269/306/275 270/308/275
f 248/301/276 82/309/276 263/310/276
f 308/311/277 262/298/277 277/307/277
f 255/299/278 271/312/278 256/303/278
f 249/304/279 263/310/279 264/313/279
f 256/303/280 272/314/280 257/289/280
f 249/304/281 265/315/281 250/288/281
f 258/290/282 272/314/282 273/316/282
f 250/288/283 266/317/283 251/291/283
f 258/290/284 274/318/284 259/292/284
f 252/293/285 266/317/285 267/319/285
f 260/294/286 274/318/286 275/320/286
f 252/293/287 268/305/287 253/295/287
f 260/294/288 276/321/288 261/296/288
f 273/316/289 287/322/289 288/323/289
f 265/315/290 281/324/290 266/317/290
f 273/316/291 289/325/291 274/318/291
f 267/319/292 281/324/292 282/326/292
f 275/320/293 289/325/293 290/327/293
f 267/319/294 283/328/294 268/305/294
f 275/320/295 291/329/295 276/321/295
f 269/306/296 283/328/296 284/330/296
f 277/307/297 291/329/297 292/331/297
f 270/308/298 284/330/298 285/332/298
f 263/310/299 82/333/299 278/334/299
f 308/335/300 277/307/300 292/331/300
f 270/308/301 286/336/301 271/312/301
f 264/313/302 278/334/302 279/337/302
f 271/312/303 287/322/303 272/314/303
f 264/313/304 280/338/304 265/315/304
f 292/331/305 306/339/305 307/340/305
f 285/332/306 299/341/306 300/342/306
f 278/334/307 82/343/307 293/344/307
f 308/345/308 292/331/308 307/340/308
f 285/332/309 301/346/309 286/336/309
f 278/334/310 294/347/310 279/337/310
f 286/336/311 302/348/311 287/322/311
f 279/337/312 295/349/312 280/338/312
f 288/323/313 302/348/313 303/350/313
f 280/338/314 296/351/314 281/324/314
f 288/323/315 304/352/315 289/325/315
f 282/326/316 296/351/316 297/353/316
f 290/327/317 304/352/317 305/354/317
f 282/326/318 298/355/318 283/328/318
f 290/327/319 306/339/319 291/329/319
f 284/330/320 298/355/320 299/341/320
f 295/349/321 312/356/321 296/351/321
f 303/350/322 320/357/322 304/352/322
f 297/353/323 312/356/323 313/358/323
f 305/354/324 320/357/324 321/359/324
f 297/353/325 314/360/325 298/355/325
f 305/354/326 322/361/326 306/339/326
f 299/341/327 314/360/327 315/362/327
f 306/339/328 323/363/328 307/340/328
f 300/342/329 315/362/329 316/364/329
f 293/344/330 82/365/330 309/366/330
f 308/367/331 307/340/331 323/363/331
f 300/342/332 317/368/332 301/346/332
f 293/344/333 310/369/333 294/347/333
f 301/346/334 318/370/334 302/348/334
f 294/347/335 311/371/335 295/349/335
f 303/350/336 318/370/336 319/372/336
f 316/364/337 330/373/337 331/374/337
f 309/366/338 82/375/338 324/376/338
f 308/377/339 323/363/339 338/378/339
f 316/364/340 332/379/340 317/368/340
f 309/366/341 325/380/341 310/369/341
f 317/368/342 333/381/342 318/370/342
f 310/369/343 326/382/343 311/371/343
f 319/372/344 333/381/344 334/383/344
f 311/371/345 327/384/345 312/356/345
f 319/372/346 335/385/346 320/357/346
f 312/356/347 328/386/347 313/358/347
f 321/359/348 335/385/348 336/387/348
f 313/358/349 329/388/349 314/360/349
f 321/359/350 337/389/350 322/361/350
f 315/362/351 329/388/351 330/373/351
f 322/361/352 338/378/352 323/363/352
f 334/383/353 350/390/353 335/385/353
f 328/386/354 342/391/354 343/392/354
f 336/387/355 350/390/355 351/393/355
f 328/386/356 344/394/356 329/388/356
f 336/387/357 352/395/357 337/389/357
f 330/373/358 344/394/358 345/396/358
f 337/389/359 353/397/359 338/378/359
f 331/374/360 345/396/360 346/398/360
f 324/376/361 82/399/361 339/400/361
f 308/401/362 338/378/362 353/397/362
f 331/374/363 347/402/363 332/379/363
f 324/376/364 340/403/364 325/380/364
f 332/379/365 348/404/365 333/381/365
f 325/380/366 341/405/366 326/382/366
f 334/383/367 348/404/367 349/406/367
f 326/382/368 342/391/368 327/384/368
f 308/407/369 353/397/369 368/408/369
f 346/398/370 362/409/370 347/402/370
f 339/400/371 355/410/371 340/403/371
f 347/402/372 363/411/372 348/404/372
f 341/405/373 355/410/373 356/412/373
f 349/406/374 363/411/374 364/413/374
f 341/405/375 357/414/375 342/391/375
f 349/406/376 365/415/376 350/390/376
f 343/392/377 357/414/377 358/416/377
f 351/393/378 365/415/378 366/417/378
f 343/392/379 359/418/379 344/394/379
f 351/393/380 367/419/380 352/395/380
f 345/396/381 359/418/381 360/420/381
f 352/395/382 368/408/382 353/397/382
f 346/398/383 360/420/383 361/421/383
f 339/400/384 82/422/384 354/423/384
f 366/424/385 380/425/385 381/426/385
f 358/427/386 374/428/386 359/429/386
f 366/424/387 382/430/387 367/431/387
f 360/432/388 374/428/388 375/433/388
f 367/431/389 383/434/389 368/435/389
f 361/436/390 375/433/390 376/437/390
f 354/438/391 82/439/391 369/440/391
f 308/441/392 368/435/392 383/434/392
f 361/436/393 377/442/393 362/443/393
f 354/438/394 370/444/394 355/445/394
f 362/443/395 378/446/395 363/447/395
f 356/448/396 370/444/396 371/449/396
f 364/450/397 378/446/397 379/451/397
f 356/448/398 372/452/398 357/453/398
f 364/450/399 380/425/399 365/454/399
f 358/427/400 372/452/400 373/455/400
f 369/440/401 385/456/401 370/444/401
f 377/442/402 393/457/402 378/446/402
f 371/449/403 385/456/403 386/458/403
f 379/451/404 393/457/404 394/459/404
f 371/449/405 387/460/405 372/452/405
f 379/451/406 395/461/406 380/425/406
f 373/455/407 387/460/407 388/462/407
f 381/426/408 395/461/408 396/463/408
f 373/455/409 389/464/409 374/428/409
f 381/426/410 397/465/410 382/430/410
f 375/433/411 389/464/411 390/466/411
f 382/430/412 398/467/412 383/434/412
f 376/437/413 390/466/413 391/468/413
f 369/440/414 82/469/414 384/470/414
f 308/471/415 383/434/415 398/467/415
f 376/437/416 392/472/416 377/442/416
f 388/462/417 404/473/417 389/464/417
f 397/465/418 411/474/418 412/475/418
f 390/466/419 404/473/419 405/476/419
f 397/465/420 413/477/420 398/467/420
f 391/468/421 405/476/421 406/478/421
f 384/470/422 82/479/422 399/480/422
f 308/481/423 398/467/423 413/477/423
f 391/468/424 407/482/424 392/472/424
f 385/456/425 399/480/425 400/483/425
f 392/472/426 408/484/426 393/457/426
f 385/456/427 401/485/427 386/458/427
f 394/459/428 408/484/428 409/486/428
f 386/458/429 402/487/429 387/460/429
f 394/459/430 410/488/430 395/461/430
f 388/462/431 402/487/431 403/489/431
f 396/463/432 410/488/432 411/474/432
f 407/482/433 423/490/433 408/484/433
f 401/485/434 415/491/434 416/492/434
f 409/486/435 423/490/435 424/493/435
f 401/485/436 417/494/436 402/487/436
f 409/486/437 425/495/437 410/488/437
f 403/489/438 417/494/438 418/496/438
f 411/474/439 425/495/439 426/497/439
f 403/489/440 419/498/440 404/473/440
f 411/474/441 427/499/441 412/475/441
f 405/476/442 419/498/442 420/500/442
f 412/475/443 428/501/443 413/477/443
f 406/478/444 420/500/444 421/502/444
f 399/480/445 82/503/445 414/504/445
f 308/505/446 413/477/446 428/501/446
f 406/478/447 422/506/447 407/482/447
f 399/480/448 415/491/448 400/483/448
f 426/497/449 442/507/449 427/499/449
f 420/500/450 434/508/450 435/509/450
f 427/499/451 443/510/451 428/501/451
f 421/502/452 435/509/452 436/511/452
f 414/504/453 82/512/453 429/513/453
f 308/514/454 428/501/454 443/510/454
f 421/502/455 437/515/455 422/506/455
f 414/504/456 430/516/456 415/491/456
f 422/506/457 438/517/457 423/490/457
f 416/492/458 430/516/458 431/518/458
f 424/493/459 438/517/459 439/519/459
f 416/492/460 432/520/460 417/494/460
f 424/493/461 440/521/461 425/495/461
f 418/496/462 432/520/462 433/522/462
f 426/497/463 440/521/463 441/523/463
f 418/496/464 434/508/464 419/498/464
f 430/516/465 446/524/465 431/518/465
f 439/519/466 453/525/466 454/526/466
f 431/518/467 447/527/467 432/520/467
f 439/519/468 455/528/468 440/521/468
f 433/522/469 447/527/469 448/529/469
f 441/523/470 455/528/470 456/530/470
f 433/522/471 449/531/471 434/508/471
f 441/523/472 457/532/472 442/507/472
f 435/509/473 449/531/473 450/533/473
f 442/507/474 458/534/474 443/510/474
f 436/511/475 450/533/475 451/535/475
f 429/513/476 82/536/476 444/537/476
f 308/538/477 443/510/477 458/534/477
f 436/511/478 452/539/478 437/515/478
f 430/516/479 444/537/479 445/540/479
f 437/515/480 453/525/480 438/517/480
f 450/533/481 464/541/481 465/542/481
f 458/534/482 472/543/482 473/544/482
f 451/535/483 465/542/483 466/545/483
f 444/537/484 82/546/484 459/547/484
f 308/548/485 458/534/485 473/544/485
f 451/535/486 467/549/486 452/539/486
f 444/537/487 460/550/487 445/540/487
f 452/539/488 468/551/488 453/525/488
f 446/524/489 460/550/489 461/552/489
f 454/526/490 468/551/490 469/553/490
f 446/524/491 462/554/491 447/527/491
f 454/526/492 470/555/492 455/528/492
f 448/529/493 462/554/493 463/556/493
f 456/530/494 470/555/494 471/557/494
f 448/529/495 464/541/495 449/531/495
f 456/530/496 472/543/496 457/532/496
f 468/551/497 6/3/497 469/553/497
f 462/554/498 1/32/498 476/4/498
f 469/553/499 479/8/499 470/555/499
f 463/556/500 476/4/500 2/9/500
f 471/557/501 479/8/501 480/12/501
f 464/541/502 2/9/502 477/13/502
f 471/557/503 481/16/503 472/543/503
f 465/542/504 477/13/504 3/17/504
f 472/543/505 482/20/505 473/544/505
f 466/545/506 3/17/506 4/22/506
f 459/547/507 82/558/507 474/23/507
f 308/559/508 473/544/508 482/20/508
f 466/545/509 5/28/509 467/549/509
f 460/550/510 474/23/510 475/29/510
f 467/549/511 478/1/511 468/551/511
f 461/552/512 475/29/512 1/32/512
f 478/1/1 16/31/1 17/2/1
f 476/4/2 1/32/2 9/5/2
f 6/3/3 17/2/3 18/7/3
f 2/9/4 476/4/4 10/6/4
f 479/8/5 18/7/5 19/11/5
f 477/13/6 2/9/6 11/10/6
f 480/12/7 19/11/7 20/15/7
f 3/17/8 477/13/8 12/14/8
f 481/16/9 20/15/9 21/19/9
f 3/17/513 13/18/513 14/21/513
f 4/22/514 14/21/514 15/27/514
f 475/29/14 474/23/14 7/25/14
f 5/28/15 15/27/15 16/31/15
f 1/32/16 475/29/16 8/30/16
f 7/25/17 22/47/17 23/33/17
f 15/27/18 30/49/18 31/34/18
f 8/30/19 23/33/19 24/35/19
f 16/31/20 31/34/20 32/36/20
f 9/5/21 24/35/21 25/37/21
f 17/2/22 32/36/22 33/38/22
f 10/6/23 25/37/23 26/39/23
f 19/11/24 18/7/24 33/38/24
f 11/10/25 26/39/25 27/41/25
f 20/15/26 19/11/26 34/40/26
f 13/18/27 12/14/27 27/41/27
f 20/15/28 35/42/28 36/44/28
f 13/18/29 28/43/29 29/45/29
f 14/21/32 29/45/32 30/49/32
f 26/39/33 41/65/33 42/50/33
f 34/40/515 49/66/515 50/51/515
f 27/41/35 42/50/35 43/52/35
f 35/42/36 50/51/36 51/53/36
f 28/43/37 43/52/37 44/54/37
f 30/49/40 29/45/40 44/54/40
f 22/47/41 37/56/41 38/59/41
f 30/49/42 45/58/42 46/60/42
f 23/33/516 38/59/516 39/61/516
f 32/36/44 31/34/44 46/60/44
f 24/35/45 39/61/45 40/63/45
f 33/38/46 32/36/46 47/62/46
f 25/37/47 40/63/47 41/65/47
f 34/40/48 33/38/48 48/64/48
f 45/58/49 60/82/49 61/67/49
f 38/59/50 53/83/50 54/68/50
f 47/62/51 46/60/51 61/67/51
f 39/61/52 54/68/52 55/70/52
f 47/62/53 62/69/53 63/71/53
f 40/63/54 55/70/54 56/72/54
f 48/64/55 63/71/55 64/73/55
f 41/65/56 56/72/56 57/74/56
f 49/66/57 64/73/57 65/75/57
f 43/52/58 42/50/58 57/74/58
f 50/51/59 65/75/59 66/77/59
f 44/54/60 43/52/60 58/76/60
f 44/54/63 59/78/63 60/82/63
f 37/56/64 52/80/64 53/83/64
f 65/75/65 64/73/65 79/84/65
f 58/76/66 57/74/66 72/86/66
f 65/75/517 80/85/517 81/88/517
f 59/78/68 58/76/68 73/87/68
f 59/78/71 74/89/71 75/93/71
f 52/80/72 67/91/72 68/94/72
f 60/82/73 75/93/73 76/95/73
f 53/83/74 68/94/74 69/96/74
f 62/69/75 61/67/75 76/95/75
f 54/68/76 69/96/76 70/98/76
f 62/69/77 77/97/77 78/99/77
f 56/72/78 55/70/78 70/98/78
f 63/71/79 78/99/79 79/84/79
f 56/72/80 71/100/80 72/86/80
f 77/97/81 76/95/81 92/101/81
f 69/96/82 85/117/82 86/103/82
f 77/97/83 93/102/83 94/104/83
f 71/100/84 70/98/84 86/103/84
f 78/99/85 94/104/85 95/106/85
f 71/100/86 87/105/86 88/107/86
f 79/84/87 95/106/87 96/108/87
f 73/87/88 72/86/88 88/107/88
f 81/88/89 80/85/89 96/108/89
f 74/89/90 73/87/90 89/109/90
f 74/89/93 90/111/93 91/115/93
f 67/91/94 83/113/94 84/116/94
f 75/93/95 91/115/95 92/101/95
f 68/94/96 84/116/96 85/117/96
f 96/108/97 111/134/97 112/118/97
f 90/111/98 89/109/98 104/119/98
f 90/111/101 105/120/101 106/124/101
f 84/116/102 83/113/102 98/122/102
f 91/115/103 106/124/103 107/126/103
f 84/116/104 99/125/104 100/127/104
f 93/102/105 92/101/105 107/126/105
f 85/117/106 100/127/106 101/129/106
f 93/102/107 108/128/107 109/130/107
f 87/105/108 86/103/108 101/129/108
f 95/106/109 94/104/109 109/130/109
f 87/105/110 102/131/110 103/133/110
f 96/108/111 95/106/111 110/132/111
f 89/109/112 88/107/112 103/133/112
f 100/127/113 115/150/113 116/135/113
f 108/128/114 123/151/114 124/136/114
f 102/131/115 101/129/115 116/135/115
f 110/132/116 109/130/116 124/136/116
f 102/131/117 117/137/117 118/139/117
f 110/132/118 125/138/118 126/140/118
f 104/119/119 103/133/119 118/139/119
f 111/134/120 126/140/120 127/142/120
f 105/120/121 104/119/121 119/141/121
f 105/120/124 120/143/124 121/147/124
f 99/125/125 98/122/125 113/145/125
f 106/124/126 121/147/126 122/149/126
f 99/125/127 114/148/127 115/150/127
f 108/128/128 107/126/128 122/149/128
f 120/143/129 119/141/129 134/152/129
f 120/143/132 135/153/132 136/158/132
f 113/145/133 128/155/133 129/159/133
f 121/147/134 136/158/134 137/160/134
f 114/148/135 129/159/135 130/161/135
f 123/151/136 122/149/136 137/160/136
f 115/150/137 130/161/137 131/163/137
f 123/151/138 138/162/138 139/164/138
f 117/137/139 116/135/139 131/163/139
f 125/138/140 124/136/140 139/164/140
f 117/137/141 132/165/141 133/167/141
f 125/138/142 140/166/142 141/168/142
f 119/141/143 118/139/143 133/167/143
f 126/140/144 141/168/144 142/157/144
f 138/162/145 153/185/145 154/169/145
f 132/165/146 131/163/146 146/170/146
f 140/166/147 139/164/147 154/169/147
f 132/165/148 147/171/148 148/173/148
f 140/166/149 155/172/149 156/174/149
f 134/152/150 133/167/150 148/173/150
f 142/157/151 141/168/151 156/174/151
f 135/153/152 134/152/152 149/175/152
f 135/153/155 150/177/155 151/181/155
f 128/155/156 143/179/156 144/182/156
f 136/158/157 151/181/157 152/183/157
f 130/161/158 129/159/158 144/182/158
f 138/162/159 137/160/159 152/183/159
f 130/161/160 145/184/160 146/170/160
f 150/177/163 165/202/163 166/190/163
f 143/179/164 158/187/164 159/191/164
f 151/181/165 166/190/165 167/192/165
f 145/184/518 144/182/518 159/191/518
f 153/185/167 152/183/167 167/192/167
f 145/184/168 160/193/168 161/195/168
f 153/185/169 168/194/169 169/196/169
f 147/171/170 146/170/170 161/195/170
f 155/172/171 154/169/171 169/196/171
f 147/171/172 162/197/172 163/199/172
f 155/172/519 170/198/519 171/200/519
f 149/175/174 148/173/174 163/199/174
f 156/174/175 171/200/175 172/189/175
f 150/177/176 149/175/176 164/201/176
f 162/197/177 161/195/177 176/203/177
f 169/196/178 184/219/178 185/205/178
f 162/197/179 177/204/179 178/206/179
f 171/200/180 170/198/180 185/205/180
f 164/201/181 163/199/181 178/206/181
f 172/189/182 171/200/182 186/207/182
f 165/202/183 164/201/183 179/208/183
f 165/202/186 180/210/186 181/214/186
f 158/187/187 173/212/187 174/215/187
f 166/190/188 181/214/188 182/216/188
f 159/191/189 174/215/189 175/217/189
f 168/194/190 167/192/190 182/216/190
f 160/193/191 175/217/191 176/203/191
f 168/194/192 183/218/192 184/219/192
f 180/210/193 195/234/193 196/220/193
f 174/215/194 173/212/194 188/221/194
f 181/214/195 196/220/195 197/223/195
f 175/217/196 174/215/196 189/222/196
f 183/218/197 182/216/197 197/223/197
f 175/217/198 190/224/198 191/226/198
f 183/218/199 198/225/199 199/227/199
f 177/204/200 176/203/200 191/226/200
f 185/205/201 184/219/201 199/227/201
f 177/204/202 192/228/202 193/230/202
f 185/205/203 200/229/203 201/231/203
f 179/208/204 178/206/204 193/230/204
f 186/207/205 201/231/205 202/233/205
f 180/210/206 179/208/206 194/232/206
f 200/229/209 199/227/209 214/237/209
f 192/228/210 207/253/210 208/239/210
f 200/229/520 215/238/520 216/240/520
f 194/232/212 193/230/212 208/239/212
f 201/231/213 216/240/213 217/242/213
f 195/234/214 194/232/214 209/241/214
f 195/234/217 210/243/217 211/247/217
f 188/221/218 203/245/218 204/248/218
f 196/220/219 211/247/219 212/249/219
f 189/222/220 204/248/220 205/250/220
f 198/225/221 197/223/221 212/249/221
f 190/224/222 205/250/222 206/252/222
f 198/225/223 213/251/223 214/237/223
f 192/228/224 191/226/224 206/252/224
f 211/247/225 226/269/225 227/254/225
f 204/248/226 219/270/226 220/255/226
f 213/251/227 212/249/227 227/254/227
f 205/250/228 220/255/228 221/257/228
f 213/251/229 228/256/229 229/258/229
f 207/253/230 206/252/230 221/257/230
f 215/238/231 214/237/231 229/258/231
f 207/253/232 222/259/232 223/261/232
f 215/238/233 230/260/233 231/262/233
f 209/241/234 208/239/234 223/261/234
f 216/240/235 231/262/235 232/264/235
f 210/243/236 209/241/236 224/263/236
f 210/243/239 225/265/239 226/269/239
f 203/245/240 218/267/240 219/270/240
f 230/260/241 245/287/241 246/271/241
f 224/263/242 223/261/242 238/272/242
f 232/264/243 231/262/243 246/271/243
f 225/265/244 224/263/244 239/273/244
f 225/265/247 240/275/247 241/279/247
f 218/267/248 233/277/248 234/280/248
f 226/269/249 241/279/249 242/281/249
f 220/255/250 219/270/250 234/280/250
f 228/256/251 227/254/251 242/281/251
f 220/255/252 235/282/252 236/284/252
f 228/256/253 243/283/253 244/285/253
f 222/259/254 221/257/254 236/284/254
f 230/260/255 229/258/255 244/285/255
f 222/259/256 237/286/256 238/272/256
f 234/280/257 249/304/257 250/288/257
f 243/283/258 242/281/258 257/289/258
f 235/282/259 250/288/259 251/291/259
f 243/283/260 258/290/260 259/292/260
f 237/286/261 236/284/261 251/291/261
f 245/287/262 244/285/262 259/292/262
f 237/286/263 252/293/263 253/295/263
f 245/287/264 260/294/264 261/296/264
f 239/273/265 238/272/265 253/295/265
f 246/271/266 261/296/266 262/298/266
f 240/275/521 239/273/521 254/297/521
f 240/275/522 255/299/522 256/303/522
f 233/277/271 248/301/271 249/304/271
f 241/279/272 256/303/272 257/289/272
f 254/297/273 253/295/273 268/305/273
f 261/296/274 276/321/274 277/307/274
f 255/299/275 254/297/275 269/306/275
f 255/299/278 270/308/278 271/312/278
f 249/304/279 248/301/279 263/310/279
f 256/303/280 271/312/280 272/314/280
f 249/304/281 264/313/281 265/315/281
f 258/290/282 257/289/282 272/314/282
f 250/288/283 265/315/283 266/317/283
f 258/290/284 273/316/284 274/318/284
f 252/293/285 251/291/285 266/317/285
f 260/294/286 259/292/286 274/318/286
f 252/293/287 267/319/287 268/305/287
f 260/294/288 275/320/288 276/321/288
f 273/316/289 272/314/289 287/322/289
f 265/315/290 280/338/290 281/324/290
f 273/316/291 288/323/291 289/325/291
f 267/319/292 266/317/292 281/324/292
f 275/320/293 274/318/293 289/325/293
f 267/319/294 282/326/294 283/328/294
f 275/320/523 290/327/523 291/329/523
f 269/306/296 268/305/296 283/328/296
f 277/307/297 276/321/297 291/329/297
f 270/308/298 269/306/298 284/330/298
f 270/308/301 285/332/301 286/336/301
f 264/313/302 263/310/302 278/334/302
f 271/312/303 286/336/303 287/322/303
f 264/313/524 279/337/524 280/338/524
f 292/331/305 291/329/305 306/339/305
f 285/332/306 284/330/306 299/341/306
f 285/332/309 300/342/309 301/346/309
f 278/334/310 293/344/310 294/347/310
f 286/336/311 301/346/311 302/348/311
f 279/337/312 294/347/312 295/349/312
f 288/323/313 287/322/313 302/348/313
f 280/338/314 295/349/314 296/351/314
f 288/323/315 303/350/315 304/352/315
f 282/326/316 281/324/316 296/351/316
f 290/327/317 289/325/317 304/352/317
f 282/326/318 297/353/318 298/355/318
f 290/327/319 305/354/319 306/339/319
f 284/330/320 283/328/320 298/355/320
f 295/349/321 311/371/321 312/356/321
f 303/350/322 319/372/322 320/357/322
f 297/353/323 296/351/323 312/356/323
f 305/354/324 304/352/324 320/357/324
f 297/353/325 313/358/325 314/360/325
f 305/354/326 321/359/326 322/361/326
f 299/341/327 298/355/327 314/360/327
f 306/339/525 322/361/525 323/363/525
f 300/342/329 299/341/329 315/362/329
f 300/342/332 316/364/332 317/368/332
f 293/344/333 309/366/333 310/369/333
f 301/346/334 317/368/334 318/370/334
f 294/347/335 310/369/335 311/371/335
f 303/350/336 302/348/336 318/370/336
f 316/364/337 315/362/337 330/373/337
f 316/364/340 331/374/340 332/379/340
f 309/366/341 324/376/341 325/380/341
f 317/368/342 332/379/342 333/381/342
f 310/369/343 325/380/343 326/382/343
f 319/372/344 318/370/344 333/381/344
f 311/371/345 326/382/345 327/384/345
f 319/372/346 334/383/346 335/385/346
f 312/356/347 327/384/347 328/386/347
f 321/359/348 320/357/348 335/385/348
f 313/358/349 328/386/349 329/388/349
f 321/359/526 336/387/526 337/389/526
f 315/362/351 314/360/351 329/388/351
f 322/361/352 337/389/352 338/378/352
f 334/383/353 349/406/353 350/390/353
f 328/386/354 327/384/354 342/391/354
f 336/387/355 335/385/355 350/390/355
f 328/386/356 343/392/356 344/394/356
f 336/387/357 351/393/357 352/395/357
f 330/373/358 329/388/358 344/394/358
f 337/389/359 352/395/359 353/397/359
f 331/374/360 330/373/360 345/396/360
f 331/374/363 346/398/363 347/402/363
f 324/376/364 339/400/364 340/403/364
f 332/379/365 347/402/365 348/404/365
f 325/380/366 340/403/366 341/405/366
f 334/383/367 333/381/367 348/404/367
f 326/382/368 341/405/368 342/391/368
f 346/398/527 361/421/527 362/409/527
f 339/400/371 354/423/371 355/410/371
f 347/402/372 362/409/372 363/411/372
f 341/405/373 340/403/373 355/410/373
f 349/406/374 348/404/374 363/411/374
f 341/405/375 356/412/375 357/414/375
f 349/406/376 364/413/376 365/415/376
f 343/392/377 342/391/377 357/414/377
f 351/393/378 350/390/378 365/415/378
f 343/392/379 358/416/379 359/418/379
f 351/393/380 366/417/380 367/419/380
f 345/396/381 344/394/381 359/418/381
f 352/395/382 367/419/382 368/408/382
f 346/398/528 345/396/528 360/420/528
f 366/424/385 365/454/385 380/425/385
f 358/427/386 373/455/386 374/428/386
f 366/424/387 381/426/387 382/430/387
f 360/432/388 359/429/388 374/428/388
f 367/431/389 382/430/389 383/434/389
f 361/436/529 360/432/529 375/433/529
f 361/436/530 376/437/530 377/442/530
f 354/438/394 369/440/394 370/444/394
f 362/443/395 377/442/395 378/446/395
f 356/448/396 355/445/396 370/444/396
f 364/450/397 363/447/397 378/446/397
f 356/448/398 371/449/398 372/452/398
f 364/450/399 379/451/399 380/425/399
f 358/427/400 357/453/400 372/452/400
f 369/440/401 384/470/401 385/456/401
f 377/442/402 392/472/402 393/457/402
f 371/449/403 370/444/403 385/456/403
f 379/451/404 378/446/404 393/457/404
f 371/449/405 386/458/405 387/460/405
f 379/451/406 394/459/406 395/461/406
f 373/455/407 372/452/407 387/460/407
f 381/426/408 380/425/408 395/461/408
f 373/455/409 388/462/409 389/464/409
f 381/426/410 396/463/410 397/465/410
f 375/433/411 374/428/411 389/464/411
f 382/430/412 397/465/412 398/467/412
f 376/437/413 375/433/413 390/466/413
f 376/437/416 391/468/416 392/472/416
f 388/462/417 403/489/417 404/473/417
f 397/465/418 396/463/418 411/474/418
f 390/466/419 389/464/419 404/473/419
f 397/465/420 412/475/420 413/477/420
f 391/468/421 390/466/421 405/476/421
f 391/468/424 406/478/424 407/482/424
f 385/456/425 384/470/425 399/480/425
f 392/472/426 407/482/426 408/484/426
f 385/456/427 400/483/427 401/485/427
f 394/459/428 393/457/428 408/484/428
f 386/458/429 401/485/429 402/487/429
f 394/459/430 409/486/430 410/488/430
f 388/462/431 387/460/431 402/487/431
f 396/463/432 395/461/432 410/488/432
f 407/482/433 422/506/433 423/490/433
f 401/485/434 400/483/434 415/491/434
f 409/486/435 408/484/435 423/490/435
f 401/485/436 416/492/436 417/494/436
f 409/486/437 424/493/437 425/495/437
f 403/489/438 402/487/438 417/494/438
f 411/474/439 410/488/439 425/495/439
f 403/489/440 418/496/440 419/498/440
f 411/474/441 426/497/441 427/499/441
f 405/476/442 404/473/442 419/498/442
f 412/475/443 427/499/443 428/501/443
f 406/478/444 405/476/444 420/500/444
f 406/478/447 421/502/447 422/506/447
f 399/480/448 414/504/448 415/491/448
f 426/497/449 441/523/449 442/507/449
f 420/500/450 419/498/450 434/508/450
f 427/499/451 442/507/451 443/510/451
f 421/502/452 420/500/452 435/509/452
f 421/502/455 436/511/455 437/515/455
f 414/504/456 429/513/456 430/516/456
f 422/506/457 437/515/457 438/517/457
f 416/492/458 415/491/458 430/516/458
f 424/493/459 423/490/459 438/517/459
f 416/492/460 431/518/460 432/520/460
f 424/493/461 439/519/461 440/521/461
f 418/496/462 417/494/462 432/520/462
f 426/497/463 425/495/463 440/521/463
f 418/496/464 433/522/464 434/508/464
f 430/516/465 445/540/465 446/524/465
f 439/519/466 438/517/466 453/525/466
f 431/518/467 446/524/467 447/527/467
f 439/519/468 454/526/468 455/528/468
f 433/522/469 432/520/469 447/527/469
f 441/523/470 440/521/470 455/528/470
f 433/522/471 448/529/471 449/531/471
f 441/523/472 456/530/472 457/532/472
f 435/509/473 434/508/473 449/531/473
f 442/507/474 457/532/474 458/534/474
f 436/511/475 435/509/475 450/533/475
f 436/511/478 451/535/478 452/539/478
f 430/516/479 429/513/479 444/537/479
f 437/515/480 452/539/480 453/525/480
f 450/533/481 449/531/481 464/541/481
f 458/534/482 457/532/482 472/543/482
f 451/535/483 450/533/483 465/542/483
f 451/535/486 466/545/486 467/549/486
f 444/537/487 459/547/487 460/550/487
f 452/539/488 467/549/488 468/551/488
f 446/524/489 445/540/489 460/550/489
f 454/526/490 453/525/490 468/551/490
f 446/524/491 461/552/491 462/554/491
f 454/526/492 469/553/492 470/555/492
f 448/529/493 447/527/493 462/554/493
f 456/530/494 455/528/494 470/555/494
f 448/529/495 463/556/495 464/541/495
f 456/530/496 471/557/496 472/543/496
f 468/551/497 478/1/497 6/3/497
f 462/554/498 461/552/498 1/32/498
f 469/553/499 6/3/499 479/8/499
f 463/556/500 462/554/500 476/4/500
f 471/557/501 470/555/501 479/8/501
f 464/541/502 463/556/502 2/9/502
f 471/557/503 480/12/503 481/16/503
f 465/542/504 464/541/504 477/13/504
f 472/543/505 481/16/505 482/20/505
f 466/545/506 465/542/506 3/17/506
f 466/545/509 4/22/509 5/28/509
f 460/550/510 459/547/510 474/23/510
f 467/549/511 5/28/511 478/1/511
f 461/552/512 460/550/512 475/29/512
